<svg width="1369" height="537" viewBox="0 0 1369 537" fill="none" xmlns="http://www.w3.org/2000/svg">
<path d="M85.0001 37.5C-6.49998 121.5 -6.50369 260.021 9.00005 311.5L86.1128 357.663L154.98 424.989L203.547 485.377L227.959 458.138L283.207 441.178L356.7 469.445L609.557 502.079L640.907 523.408L735.985 508.761L975.48 473.042L1179.51 405.716L1360 309C1393.92 174.76 1317.96 66.0313 1276.5 28L1173.86 81.6797L953.637 162.882L957.235 141.553L937.191 101.98L894.021 105.578L853.42 152.346L703.093 170.077L698.982 117.398L664.034 95.556L609.557 131.275L598.764 156.2L566.9 150.804L436.36 140.782L378.8 156.2L339.997 145.408L326.892 117.398L296.57 61.3792L250.829 25.6607L162.946 9.47168L85.0001 37.5Z" fill="#042833" stroke="#927417"/>
<g filter="url(#filter0_d_258_61)">
<path d="M94.0788 354.066L6.45264 303.187L10.0502 317.577L85.3418 364.345C94.0788 388.5 178.364 451.971 185.045 464.562C190.39 474.636 193.611 485.377 194.553 489.488H206.117C224.619 478.439 230.614 468.331 234.126 460.708C257.973 459.68 275.755 450.344 281.665 445.804C390.826 490.619 552.767 507.819 620.092 510.817C655.657 546.381 695.898 526.149 711.573 511.588C989.304 513.438 1259.69 384.388 1360.16 319.632L1361.7 303.187C1095.48 470.524 812.904 504.307 704.892 500.281C670.972 532.762 640.136 512.701 628.315 498.482C491.814 498.071 340.34 454.626 281.665 432.955C280.021 434.806 244.919 450.686 221.278 450.686C219.839 458.909 210.999 471.329 206.117 475.355C189.414 436.296 157.036 420.878 145.215 411.37C135.759 403.764 107.184 369.998 94.0788 354.066Z" fill="#927417"/>
</g>
<g filter="url(#filter1_d_258_61)">
<path d="M92.5371 41.0789L84.5711 37.2244C104.101 24.8898 160.891 -10.5716 237.981 15.1252C305.751 37.7153 334.173 111.231 340.254 138.984L382.654 151.318C394.577 141.656 433.534 136.671 451.521 135.386C497.365 136.825 567.414 145.237 596.708 149.263L601.591 129.99C612.127 121.767 647.112 90.3892 669.687 91.7017C691.787 92.9865 703.95 110.375 707.205 117.398L710.545 163.396L792.261 161.597C823.097 157.897 856.503 139.155 869.352 130.247C873.206 114.058 885.541 89.6459 925.885 96.3271C959.258 101.854 963.316 138.127 961.86 155.173C1080.68 128.448 1218.23 55.0409 1270.99 22.3203L1280.24 30.8002C1132.64 122.486 994.495 162.197 944.386 170.077C953.894 144.38 951.838 115.086 922.03 106.863C891.668 98.487 882.2 123.823 880.401 138.213C859.844 158.77 802.968 172.304 777.1 176.501L696.412 174.188V129.99C694.973 108.199 675.593 104.229 666 105C659.5 105 628.719 121.779 614.5 133C610 136 607.073 153.46 606.473 163.396C566.386 156.817 488.92 149.898 455 147.5C439.5 146 402.783 151.661 382.654 163.396L330.233 147.978C310.086 42.9292 224.704 17.8662 184.532 18.4658C150.869 14.8682 111.467 31.571 92.5371 41.0789Z" fill="#927417"/>
</g>
<path d="M206.888 118.074V427.206" stroke="#0B6E73" stroke-width="7"/>
<path d="M140.731 64.0117C126.394 81.5627 110.439 120.012 106.593 165.905C102.852 210.551 110.614 261.778 142.038 307.136C142.812 306.03 143.628 304.609 144.451 302.838C146.146 299.19 147.701 294.453 149.005 288.925C151.61 277.875 153.127 264.017 152.896 250.149C152.665 236.254 150.683 222.592 146.457 211.829C142.217 201.029 135.976 193.736 127.554 191.335L122.098 189.78L125.935 185.602L137.499 173.01L138.539 171.878H154.05V77.1846L158.135 77.876C160.362 78.2535 164.367 78.5499 168.79 78.1143C173.235 77.6764 177.795 76.5287 181.373 74.2598L186.747 70.8516V223.25L186.744 223.326C186.442 230.222 185.796 241.051 184.836 251.154C184.356 256.204 183.795 261.11 183.152 265.27C182.525 269.334 181.779 272.984 180.85 275.339C179.036 279.934 177.034 286.767 171.777 293.948C166.929 300.57 159.416 307.416 146.907 313.885C200.024 385.103 254.652 389.676 274.15 383.279L285.912 379.421L277.912 388.867C268.116 400.435 260.553 406.76 253.511 410.221C246.399 413.716 240.119 414.126 233.562 414.512L233.396 414.521L233.23 414.515C221.747 414.104 209.082 409.791 197.866 404.444C186.607 399.077 176.477 392.509 169.997 387.271L169.985 387.262C38.3712 279.886 73.4261 129.534 96.7803 75.8203L97.3496 74.5088L98.6748 73.9717L136.706 58.5537L140.731 64.0117ZM214.77 58.0811C230.708 78.1824 244.502 89.5851 255.111 95.7119C265.878 101.929 272.954 102.496 275.694 101.825L287.136 99.0264L279.08 107.619C265.641 121.954 246.193 122.805 237.579 121.808L237.13 121.756L236.71 121.592C225.71 117.302 215.45 108.591 207.237 99.6758C198.99 90.7234 192.52 81.2492 189.161 75.0234L187.643 72.209L190.309 70.4434L210.095 57.3379L212.773 55.5635L214.77 58.0811Z" fill="#0B6E73" stroke="#0B6E73" stroke-width="7"/>
<path d="M323.408 200.351C328.979 205.708 337.618 213.646 345.422 220.043C349.335 223.251 352.959 226.005 355.842 227.852C357.293 228.781 358.45 229.41 359.296 229.76C359.581 229.878 359.789 229.945 359.928 229.983L364.055 228.729V355.477L362.638 356.525L341.823 371.943L336.24 376.08V251L303.034 222.722C302.097 241.264 301.088 266.472 300.737 289.166C300.539 302.037 300.552 314.057 300.907 323.579C301.085 328.343 301.346 332.437 301.701 335.677C302.068 339.024 302.506 341.134 302.907 342.145C305.026 347.488 309.864 353.909 315.354 359.939C320.775 365.895 326.538 371.154 330.151 374.145L334.45 377.702L329.376 380.023L305.221 391.073L303.46 391.878L301.843 390.815C299.19 389.073 295.769 385.723 292.318 381.931C288.794 378.057 285.004 373.456 281.582 368.975C278.168 364.504 275.065 360.08 272.942 356.561C271.893 354.821 271.011 353.182 270.463 351.812C270.196 351.143 269.936 350.363 269.833 349.572C269.754 348.964 269.622 347.33 270.841 345.976L270.996 345.784C271.365 345.283 271.779 344.41 272.134 343.229C272.494 342.03 272.696 340.85 272.772 340.141L274.312 223.642L274.343 221.243L276.591 220.407L296.539 212.984L296.8 208.219L300.269 211.173L319.187 199.868L321.481 198.497L323.408 200.351Z" fill="#0B6E73" stroke="#0B6E73" stroke-width="7"/>
<path d="M482.885 238.601L498.816 260.699L500.311 262.772L498.792 264.827L495.108 269.811V380.42C496.025 386.409 502.44 402.608 521.633 416.121L524.509 418.146L522.47 421.013C520.768 423.404 517.82 426.99 514.393 430.123C511.214 433.029 507.042 436.092 502.738 436.786L502.321 436.847C499.36 437.217 495.895 436.369 492.469 434.826C488.96 433.246 485.154 430.787 481.398 427.492C474.115 421.103 466.864 411.436 462.263 398.499L461.605 398.124L454.999 394.349L461.043 392.189C461.269 391.416 461.537 390.093 461.749 388.017C462.202 383.582 462.361 376.19 461.647 364.462L461.641 364.355V271.804C460.647 269.072 457.631 263.56 452.591 260.634L447.706 257.798L452.421 254.686L478.117 237.727L480.92 235.876L482.885 238.601ZM401.566 224.894C404.29 226.724 408.333 229.756 411.637 232.945C413.279 234.531 414.855 236.267 415.986 238.003C417.015 239.581 418.172 241.901 417.699 244.386C417.702 244.372 417.662 244.69 417.618 245.591C417.579 246.394 417.542 247.48 417.51 248.831C417.446 251.53 417.399 255.214 417.366 259.659C417.301 268.545 417.294 280.418 417.324 293.427C417.383 318.994 417.583 348.913 417.752 369.08C421.345 374.389 427.406 382.292 433.808 389.017C437.187 392.566 440.58 395.702 443.688 397.949C446.921 400.285 449.349 401.292 450.888 401.353L462.238 401.798L452.605 407.817L425.881 424.521L423.645 425.918L421.685 424.154C416.458 419.451 408.516 411.675 401.299 403.796C397.689 399.855 394.229 395.854 391.37 392.175C388.552 388.548 386.166 385.043 384.857 382.128L383.771 379.706L385.81 378.006L385.932 377.879C386.01 377.792 386.12 377.661 386.238 377.49C386.421 377.225 386.562 376.949 386.652 376.689C386.66 376.544 386.669 376.343 386.678 376.079C386.698 375.445 386.715 374.537 386.731 373.372C386.764 371.047 386.787 367.762 386.804 363.733C386.836 355.678 386.84 344.687 386.825 332.543C386.795 308.256 386.692 279.377 386.606 260.192L386.605 260.057L386.615 259.922C386.765 257.869 385.292 250.192 375.098 243.584L370.263 240.45L375.271 237.604L397.885 224.756L399.769 223.686L401.566 224.894Z" fill="#0B6E73" stroke="#0B6E73" stroke-width="7"/>
<path d="M545.105 246.668C547.727 248.296 549.881 251.223 551.611 254.19C553.403 257.266 555.013 260.871 556.379 264.362C559.115 271.349 561.02 278.244 561.559 280.399L561.625 280.622C561.8 281.114 562.104 281.431 562.489 281.673C563.004 281.997 563.565 282.111 563.765 282.123L569.29 282.448L566.628 287.3L562.694 294.474C562.739 311.221 562.867 336.294 563.109 358.243C563.232 369.417 563.384 379.771 563.57 387.801C563.758 395.956 563.978 401.439 564.202 403.097L564.236 403.319C564.437 404.451 565.043 405.845 566.128 407.461C567.267 409.157 568.807 410.909 570.56 412.612C574.072 416.025 578.167 418.985 580.825 420.636L584.208 422.737L581.689 425.822C572.712 436.819 559.23 440.81 553.422 441.477L551.628 441.683L550.421 440.339L525.238 412.33L522.818 409.638L525.589 407.31C529.778 403.791 531.485 398.466 531.802 396.303C532.271 384.112 532.831 364.839 532.995 346.404C533.155 328.358 532.931 311.388 531.921 302.564L531.822 301.736C529.715 285.266 518.381 272.691 513.104 268.596L508.993 265.404L513.499 262.801L541.507 246.611L543.323 245.562L545.105 246.668ZM608.675 255.767C609.033 259.942 610.363 266.365 613.108 271.885C615.883 277.464 619.703 281.384 624.736 282.158L629.402 282.876L627.359 287.132C626.12 289.713 623.602 293.305 619.9 296.124C616.257 298.898 611.33 301.012 605.353 300.461L604.771 300.398C597.172 299.486 589.981 294.174 584.808 289.328C579.553 284.405 575.666 279.276 574.692 277.653L573.035 274.893L575.648 273.012L603.144 253.225L608.149 249.623L608.675 255.767Z" fill="#0B6E73" stroke="#0B6E73" stroke-width="7"/>
<path d="M668.818 193.04L707.312 197.08L712.417 197.616L710.055 202.171L703.506 214.801L706.195 223.99L707.605 228.807L702.597 228.464L668.779 226.148L666.764 419.171C667.098 427.927 672.982 448.681 693.944 459.835L698.119 462.056L694.775 465.4C691.612 468.563 686.447 473.322 681.171 477.369C678.535 479.39 675.804 481.286 673.235 482.719C670.923 484.01 668.385 485.133 666.005 485.394L665.53 485.434C663.787 485.54 662.157 484.956 660.819 484.255C659.443 483.535 658.069 482.529 656.746 481.395C654.097 479.125 651.29 476.029 648.591 472.707C643.246 466.127 637.984 458.234 634.709 452.882L632.545 450.237L631.461 448.913L631.841 447.244C633.383 440.477 636.379 424.871 636.379 415.643V221.64C597.465 213.408 540.025 202.579 490.652 196.104C465.355 192.786 442.292 190.627 424.959 190.525C416.273 190.474 409.193 190.941 404.047 191.975C401.473 192.492 399.526 193.125 398.151 193.817C396.758 194.519 396.222 195.145 396.03 195.508L389.667 192.62C391.833 187.005 396.719 182.071 405.422 178.34C414.059 174.638 426.694 172.006 444.907 171.016C480.862 169.061 539.487 173.467 634.268 189.758L636.384 147.451L636.473 145.66L637.979 144.686L663.419 128.24L668.818 124.749V193.04ZM921.626 137.932C919.49 150.511 908.341 169.056 884.021 186.088C859.603 203.189 821.703 218.936 765.451 225.876L760.205 226.524L761.657 221.441L763.831 213.829L758.612 204.297L755.914 199.371L761.525 199.12C780.401 198.275 811.286 194.081 841.314 184.132C871.453 174.148 900.075 158.582 915.248 135.428L921.626 137.932Z" fill="#0B6E73" stroke="#0B6E73" stroke-width="7"/>
<path d="M734.466 257.825L754.51 279.925L755.857 281.411L755.256 283.325L752.591 291.806V401.715C753.071 404.385 754.509 408.396 757.263 411.731C760.022 415.074 764.052 417.71 769.956 417.796L776.795 417.896L772.714 423.384C770.12 426.872 765.664 432.127 760.622 436.678C758.099 438.955 755.364 441.117 752.586 442.794C750.014 444.347 747.216 445.601 744.39 446.028L743.823 446.103C740.383 446.485 737.164 445.189 734.45 443.396C731.713 441.589 729.154 439.06 726.885 436.367C722.342 430.977 718.532 424.415 716.39 419.996L715.86 418.904L716.12 417.719L720.665 397.017V304.295C719.607 300.299 715.252 290.28 705.66 281.816L702.528 279.054L705.796 276.454L729.694 257.438L732.262 255.396L734.466 257.825Z" fill="#0B6E73" stroke="#0B6E73" stroke-width="7"/>
<path d="M807.781 279.077C809.105 286.315 812.245 297.3 817.284 306.608C822.435 316.123 828.938 322.761 836.543 323.505L839.802 323.823L841.877 322.342L868.859 303.069L870.979 301.554L873.039 303.152C878.203 307.16 882.122 314.556 884.669 323.174C887.255 331.923 888.586 342.464 888.171 353.364C887.346 375.055 879.541 399.007 859.798 412.854L854.562 416.526L856.095 416.45L846.762 423.341L819.266 443.642L815.763 446.228L814.016 442.307C810.421 438.991 807.28 434.058 804.405 428.837C801.368 423.321 798.289 416.824 795.283 411.003C792.198 405.029 789.099 399.572 785.771 395.463C782.407 391.31 779.202 389.024 776.035 388.52L767.835 387.213L774.496 382.256L796.596 365.81L797.451 365.173L798.516 365.122C808.512 364.638 814.858 371.177 820.37 379.958C823.154 384.393 825.917 389.71 828.925 395.52C831.921 401.307 835.198 407.663 839.102 414.435C839.452 414.846 840.156 415.519 841.106 416.084C842.16 416.71 843.322 417.089 844.508 417.029L852.877 416.61L854.357 409.295C859.533 383.722 859.022 365.963 855.912 353.336C852.823 340.79 847.12 333.107 841.491 327.718L840.96 327.209L838.661 329.479C835.345 332.753 829.965 337.944 824.595 342.475C821.914 344.737 819.178 346.883 816.665 348.555C814.423 350.046 811.988 351.418 809.767 351.929L809.325 352.019C807.043 352.428 804.849 351.79 802.987 350.814C801.111 349.832 799.3 348.369 797.608 346.673C794.221 343.276 790.909 338.532 788.122 333.375C785.326 328.201 782.968 322.447 781.573 316.948C780.2 311.537 779.656 305.972 780.921 301.389L781.043 300.946L781.274 300.551C783.108 297.42 786.318 292.54 790.068 287.94C793.727 283.453 798.267 278.768 802.808 276.56L806.952 274.543L807.781 279.077ZM841.366 245.369C844.429 247.239 850.003 250.009 856.505 252.052C863.039 254.105 870.197 255.322 876.559 254.4L884.706 253.22L879.903 259.906C877.519 263.226 873.058 268.171 867.227 272.574C861.586 276.834 854.437 280.756 846.447 282.031L845.672 282.146C840.848 282.807 837.358 282.88 834.605 282.363C831.669 281.812 829.782 280.631 828.158 279.288C826.468 277.89 825.723 276.997 823.896 275.756C822.259 274.643 819.891 273.408 815.962 272.277L809.936 270.542L814.575 266.324L837.188 245.767L839.129 244.003L841.366 245.369Z" fill="#0B6E73" stroke="#0B6E73" stroke-width="7"/>
<path d="M921.571 272.332C921.158 273.983 921.015 276.012 920.964 278.393C920.916 280.613 920.952 283.342 920.802 285.71C920.65 288.103 920.29 290.745 919.198 293.019C918.017 295.476 915.994 297.454 912.883 298.257L911.931 298.502L910.989 298.216C907.497 297.153 906.335 293.878 906.048 291.408C905.747 288.819 906.178 285.83 906.961 283.024C907.756 280.175 908.991 277.244 910.527 274.715C912.025 272.249 914.004 269.847 916.43 268.45L923.569 264.339L921.571 272.332ZM1004.42 350.508C1006.33 353.972 1009.57 359.136 1013.47 364.121C1017.73 369.559 1022.51 374.422 1026.99 376.845L1030.86 378.932L1027.96 382.232L1005.86 407.415L1003.84 409.72L1001.29 408.019C995.618 404.237 982.538 393.371 974.979 379.548L974.549 378.763V301.996L939.025 319.219L935.648 378.318L958.65 396.721L961.704 399.163L934.526 426.341L931.035 429.831L928.897 425.382C927.496 422.464 924.416 417.768 919.889 413.615C915.516 409.604 909.983 406.268 903.486 405.325L902.854 405.241L896.376 404.464L900.607 399.497C901.531 398.413 902.869 396.712 903.877 395.162C904.374 394.398 904.717 393.78 904.903 393.351C904.896 393.302 904.891 393.267 904.889 393.25C904.858 393.024 904.834 392.779 904.816 392.543C904.78 392.065 904.751 391.451 904.726 390.742C904.675 389.314 904.639 387.356 904.614 385.011C904.565 380.314 904.561 373.972 904.583 367.007C904.628 353.072 904.783 336.589 904.911 325.662L904.965 321.053L909.391 322.344C909.716 322.439 910.84 322.484 913.03 322.017C915.047 321.586 917.472 320.837 920.055 319.901C925.209 318.034 930.658 315.549 934.084 313.836L934.104 313.827L934.122 313.817L974.549 294.216V280.267C971.05 277.284 965.355 273.092 958.504 269.288C950.82 265.021 941.909 261.367 933.174 260.311L926.132 259.46L931.092 254.389L953.962 231.005L955.771 229.155L958.069 230.342L959.344 230.995C965.926 234.347 975.537 238.918 984.456 242.485C989.221 244.391 993.704 245.977 997.382 246.945C999.223 247.43 1000.79 247.739 1002.03 247.87C1003.35 248.008 1004.02 247.913 1004.24 247.844L1013.7 244.869L1008.2 253.124C1007.37 254.364 1006.15 256.516 1005.27 258.777C1004.33 261.211 1004.08 263.022 1004.31 263.953L1004.42 264.371V350.508Z" fill="#0B6E73" stroke="#0B6E73" stroke-width="7"/>
<path d="M1046.4 206.568C1048.27 206.568 1049.98 207.24 1051.42 208.095C1052.88 208.956 1054.27 210.121 1055.57 211.402C1058.17 213.957 1060.78 217.339 1063.24 220.735C1064.48 222.449 1065.71 224.208 1066.9 225.906C1068.09 227.614 1069.24 229.257 1070.34 230.782C1072.61 233.916 1074.48 236.24 1075.92 237.476L1079.43 240.482L1075.58 243.046C1074.73 243.615 1073.94 244.622 1073.29 245.892C1072.74 246.978 1072.41 248.041 1072.26 248.709V342.651C1072.99 347.427 1075.78 351.822 1079.29 355.496C1082.84 359.209 1086.87 361.9 1089.38 363.193L1093.45 365.294L1090.35 368.672L1067.23 393.854L1064.7 396.606L1062.12 393.905C1058.41 390.028 1052.9 384.1 1048.4 378.916C1046.16 376.334 1044.12 373.88 1042.67 371.935C1041.96 370.976 1041.32 370.043 1040.88 369.229C1040.66 368.835 1040.41 368.333 1040.25 367.788C1040.15 367.453 1039.75 366.131 1040.44 364.739L1040.46 364.705C1040.48 364.649 1040.51 364.545 1040.56 364.378C1040.66 364.082 1040.76 363.692 1040.88 363.211C1041.12 362.251 1041.38 361.045 1041.64 359.738C1042.14 357.236 1042.61 354.481 1042.91 352.624C1043.41 329.687 1044.08 282.109 1043.02 266.518L1042.92 265.105C1042.4 259.194 1038.79 253.584 1034.09 248.885C1029.42 244.219 1024.09 240.87 1021.04 239.455L1016.7 237.45L1019.92 233.921L1043.82 207.71L1044.86 206.568H1046.4ZM1112.96 186.268C1114.62 186.268 1116.19 186.977 1117.37 187.64C1118.65 188.356 1120 189.321 1121.33 190.371C1123.98 192.465 1127 195.229 1129.85 197.799C1132.78 200.436 1135.55 202.882 1137.94 204.593C1139.14 205.449 1140.11 206.028 1140.86 206.355C1141.33 206.557 1141.57 206.606 1141.65 206.618L1145.75 205.764V312.288C1147.09 319.861 1150.68 325.289 1154.6 328.734C1158.71 332.344 1162.83 333.514 1164.99 333.274L1174.32 332.238L1167.95 339.129L1139.68 369.708L1136.8 372.822L1134.29 369.406L1115.02 343.195L1111.84 338.87L1116.6 337.811C1116.68 337.63 1116.76 337.397 1116.82 337.138C1116.87 336.914 1116.9 336.717 1116.91 336.583V245.141C1110.8 229.194 1095.21 223.565 1088.17 222.799L1081.71 222.097L1085.85 217.09L1110.26 187.538L1111.31 186.268H1112.96Z" fill="#0B6E73" stroke="#0B6E73" stroke-width="7"/>
<path d="M1199.19 268.474C1204.52 268.161 1208.53 271.925 1211.43 275.78C1214.53 279.905 1217.32 285.438 1219.92 290.509C1222.61 295.766 1225.11 300.544 1227.76 303.851C1230.47 307.244 1232.42 307.971 1234.04 307.632L1244.14 305.506L1237.42 313.336L1212.49 342.374L1210.18 345.062L1207.52 342.722C1203.87 339.506 1201.24 335.536 1199.02 331.477C1197.91 329.444 1196.87 327.339 1195.85 325.267C1194.83 323.173 1193.83 321.116 1192.76 319.075C1188.52 310.995 1183.36 303.681 1173.03 299.384L1169.69 297.996L1171.19 294.704C1173.01 290.687 1176.47 284.656 1181.03 279.413C1185.5 274.278 1191.56 269.279 1198.67 268.518L1199.19 268.474ZM1202.48 180.903C1203.86 188.278 1206.89 198.755 1211.41 206.39C1213.68 210.221 1216.14 213.011 1218.64 214.48C1220.95 215.835 1223.42 216.156 1226.4 214.834L1233.47 211.703L1257.37 185.85L1258.78 184.327L1260.79 184.83C1263.82 185.587 1266.16 187.918 1267.91 190.532C1269.72 193.223 1271.24 196.707 1272.47 200.652C1274.94 208.562 1276.42 218.878 1276.42 229.842C1276.42 251.568 1270.58 277.163 1253.47 291.63L1246.38 297.619L1247.74 288.442L1247.88 287.475C1249.31 277.312 1250.19 262.08 1248.38 248.286C1247.44 241.166 1245.81 234.606 1243.28 229.369C1240.76 224.139 1237.48 220.485 1233.35 218.668L1231.87 218.016L1230.86 219.779C1228.03 224.696 1222.98 232.827 1217.46 239.774C1214.7 243.24 1211.73 246.524 1208.79 248.973C1205.98 251.308 1202.58 253.398 1199.04 253.398C1197.03 253.398 1194.92 252.702 1192.96 251.696C1190.96 250.665 1188.88 249.187 1186.91 247.337C1182.96 243.636 1179.23 238.283 1177.21 231.573C1173.07 217.891 1176.25 199.522 1196.56 179.078L1201.26 174.346L1202.48 180.903ZM1268.74 140.612C1260.06 153.249 1253.1 162.338 1244.26 167.481C1235.19 172.755 1224.68 173.619 1209.58 171.388L1203.65 170.512L1207.33 165.78L1228.65 138.284L1229.8 136.811L1231.66 136.938C1236.16 137.244 1242.65 137.621 1248.98 137.515C1255.47 137.405 1261.2 136.787 1264.5 135.403L1275.48 130.799L1268.74 140.612Z" fill="#0B6E73" stroke="#0B6E73" stroke-width="7"/>
<path d="M206.888 133.074V442.206" stroke="#927417" stroke-width="7"/>
<path d="M140.731 79.0117C126.394 96.5627 110.439 135.012 106.593 180.905C102.852 225.551 110.614 276.778 142.038 322.136C142.812 321.03 143.628 319.609 144.451 317.838C146.146 314.19 147.701 309.453 149.005 303.925C151.61 292.875 153.127 279.017 152.896 265.149C152.665 251.254 150.683 237.592 146.457 226.829C142.217 216.029 135.976 208.736 127.554 206.335L122.098 204.78L125.935 200.602L137.499 188.01L138.539 186.878H154.05V92.1846L158.135 92.876C160.362 93.2535 164.367 93.5499 168.79 93.1143C173.235 92.6764 177.795 91.5287 181.373 89.2598L186.747 85.8516V238.25L186.744 238.326C186.442 245.222 185.796 256.051 184.836 266.154C184.356 271.204 183.795 276.11 183.152 280.27C182.525 284.334 181.779 287.984 180.85 290.339C179.036 294.934 177.034 301.767 171.777 308.948C166.929 315.57 159.416 322.416 146.907 328.885C200.024 400.103 254.652 404.676 274.15 398.279L285.912 394.421L277.912 403.867C268.116 415.435 260.553 421.76 253.511 425.221C246.399 428.716 240.119 429.126 233.562 429.512L233.396 429.521L233.23 429.515C221.747 429.104 209.082 424.791 197.866 419.444C186.607 414.077 176.477 407.509 169.997 402.271L169.985 402.262C38.3712 294.886 73.4261 144.534 96.7803 90.8203L97.3496 89.5088L98.6748 88.9717L136.706 73.5537L140.731 79.0117ZM214.77 73.0811C230.708 93.1824 244.502 104.585 255.111 110.712C265.878 116.929 272.954 117.496 275.694 116.825L287.136 114.026L279.08 122.619C265.641 136.954 246.193 137.805 237.579 136.808L237.13 136.756L236.71 136.592C225.71 132.302 215.45 123.591 207.237 114.676C198.99 105.723 192.52 96.2492 189.161 90.0234L187.643 87.209L190.309 85.4434L210.095 72.3379L212.773 70.5635L214.77 73.0811Z" fill="#F7ECCC" stroke="#927417" stroke-width="7"/>
<path d="M323.408 215.351C328.979 220.708 337.618 228.646 345.422 235.043C349.335 238.251 352.959 241.005 355.842 242.852C357.293 243.781 358.45 244.41 359.296 244.76C359.581 244.878 359.789 244.945 359.928 244.983L364.055 243.729V370.477L362.638 371.525L341.823 386.943L336.24 391.08V266L303.034 237.722C302.097 256.264 301.088 281.472 300.737 304.166C300.539 317.037 300.552 329.057 300.907 338.579C301.085 343.343 301.346 347.437 301.701 350.677C302.068 354.024 302.506 356.134 302.907 357.145C305.026 362.488 309.864 368.909 315.354 374.939C320.775 380.895 326.538 386.154 330.151 389.145L334.45 392.702L329.376 395.023L305.221 406.073L303.46 406.878L301.843 405.815C299.19 404.073 295.769 400.723 292.318 396.931C288.794 393.057 285.004 388.456 281.582 383.975C278.168 379.504 275.065 375.08 272.942 371.561C271.893 369.821 271.011 368.182 270.463 366.812C270.196 366.143 269.936 365.363 269.833 364.572C269.754 363.964 269.622 362.33 270.841 360.976L270.996 360.784C271.365 360.283 271.779 359.41 272.134 358.229C272.494 357.03 272.696 355.85 272.772 355.141L274.312 238.642L274.343 236.243L276.591 235.407L298.389 227.296L319.187 214.868L321.481 213.497L323.408 215.351Z" fill="#F7ECCC" stroke="#927417" stroke-width="7"/>
<path d="M482.885 253.601L498.816 275.699L500.311 277.772L498.792 279.827L495.108 284.811V395.42C496.025 401.409 502.44 417.608 521.633 431.121L524.509 433.146L522.47 436.013C520.768 438.404 517.82 441.99 514.393 445.123C511.214 448.029 507.042 451.092 502.738 451.786L502.321 451.847C499.36 452.217 495.895 451.369 492.469 449.826C488.96 448.246 485.154 445.787 481.398 442.492C474.115 436.103 466.864 426.436 462.263 413.499L461.605 413.124L454.999 409.349L461.043 407.189C461.269 406.416 461.537 405.093 461.749 403.017C462.202 398.582 462.361 391.19 461.647 379.462L461.641 379.355V286.804C460.647 284.072 457.631 278.56 452.591 275.634L447.706 272.798L452.421 269.686L478.117 252.727L480.92 250.876L482.885 253.601ZM401.566 239.894C404.29 241.724 408.333 244.756 411.637 247.945C413.279 249.531 414.855 251.267 415.986 253.003C417.015 254.581 418.172 256.901 417.699 259.386C417.702 259.372 417.662 259.69 417.618 260.591C417.579 261.394 417.542 262.48 417.51 263.831C417.446 266.53 417.399 270.214 417.366 274.659C417.301 283.545 417.294 295.418 417.324 308.427C417.383 333.994 417.583 363.913 417.752 384.08C421.345 389.389 427.406 397.292 433.808 404.017C437.187 407.566 440.58 410.702 443.688 412.949C446.921 415.285 449.349 416.292 450.888 416.353L462.238 416.798L452.605 422.817L425.881 439.521L423.645 440.918L421.685 439.154C416.458 434.451 408.516 426.675 401.299 418.796C397.689 414.855 394.229 410.854 391.37 407.175C388.552 403.548 386.166 400.043 384.857 397.128L383.771 394.706L385.81 393.006L385.932 392.879C386.01 392.792 386.12 392.661 386.238 392.49C386.421 392.225 386.562 391.949 386.652 391.689C386.66 391.544 386.669 391.343 386.678 391.079C386.698 390.445 386.715 389.537 386.731 388.372C386.764 386.047 386.787 382.762 386.804 378.733C386.836 370.678 386.84 359.687 386.825 347.543C386.795 323.256 386.692 294.377 386.606 275.192L386.605 275.057L386.615 274.922C386.765 272.869 385.292 265.192 375.098 258.584L370.263 255.45L375.271 252.604L397.885 239.756L399.769 238.686L401.566 239.894Z" fill="#F7ECCC" stroke="#927417" stroke-width="7"/>
<path d="M545.105 261.667C547.727 263.295 549.881 266.223 551.611 269.19C553.403 272.265 555.013 275.871 556.379 279.362C559.115 286.349 561.02 293.244 561.559 295.399L561.625 295.622C561.8 296.114 562.104 296.43 562.489 296.672C563.004 296.997 563.565 297.111 563.765 297.123L569.29 297.448L566.628 302.299L562.694 309.473C562.739 326.22 562.867 351.294 563.109 373.243C563.232 384.417 563.384 394.77 563.57 402.8C563.758 410.956 563.978 416.438 564.202 418.096L564.236 418.319C564.437 419.45 565.043 420.844 566.128 422.46C567.267 424.157 568.807 425.908 570.56 427.612C574.072 431.025 578.167 433.984 580.825 435.635L584.208 437.737L581.689 440.822C572.712 451.819 559.23 455.81 553.422 456.476L551.628 456.682L550.421 455.338L525.238 427.33L522.818 424.637L525.589 422.309C529.778 418.791 531.485 413.466 531.802 411.302C532.271 399.112 532.831 379.838 532.995 361.404C533.155 343.357 532.931 326.388 531.921 317.564L531.822 316.736C529.715 300.266 518.381 287.691 513.104 283.595L508.993 280.404L513.499 277.8L541.507 261.611L543.323 260.561L545.105 261.667ZM608.675 270.766C609.033 274.941 610.363 281.364 613.108 286.884C615.883 292.464 619.703 296.383 624.736 297.158L629.402 297.875L627.359 302.131C626.12 304.712 623.602 308.305 619.9 311.124C616.257 313.897 611.33 316.012 605.353 315.46L604.771 315.398C597.172 314.486 589.981 309.173 584.808 304.328C579.553 299.405 575.666 294.275 574.692 292.653L573.035 289.892L575.648 288.011L603.144 268.224L608.149 264.623L608.675 270.766Z" fill="#F7ECCC" stroke="#927417" stroke-width="7"/>
<path d="M668.818 208.039L707.312 212.079L712.417 212.615L710.055 217.171L703.506 229.801L706.195 238.989L707.605 243.807L702.597 243.464L668.779 241.147L666.764 434.171C667.098 442.927 672.982 463.68 693.944 474.835L698.119 477.056L694.775 480.399C691.612 483.563 686.447 488.322 681.171 492.368C678.535 494.389 675.804 496.285 673.235 497.719C670.923 499.009 668.385 500.133 666.005 500.394L665.53 500.434C663.787 500.539 662.157 499.955 660.819 499.255C659.443 498.534 658.069 497.529 656.746 496.395C654.097 494.124 651.29 491.029 648.591 487.706C643.246 481.127 637.984 473.233 634.709 467.882L632.545 465.236L631.461 463.912L631.841 462.243C633.383 455.477 636.379 439.871 636.379 430.643V236.64C597.465 228.408 540.025 217.579 490.652 211.104C465.355 207.786 442.292 205.627 424.959 205.524C416.273 205.473 409.193 205.94 404.047 206.975C401.473 207.492 399.526 208.124 398.151 208.816C396.758 209.518 396.222 210.144 396.03 210.508L389.667 207.619C391.833 202.004 396.719 197.07 405.422 193.34C414.059 189.638 426.694 187.006 444.907 186.016C480.862 184.061 539.487 188.466 634.268 204.758L636.384 162.45L636.473 160.659L637.979 159.686L663.419 143.239L668.818 139.748V208.039ZM921.626 152.932C919.49 165.511 908.341 184.056 884.021 201.088C859.603 218.189 821.703 233.935 765.451 240.876L760.205 241.523L761.657 236.44L763.831 228.828L758.612 219.297L755.914 214.37L761.525 214.119C780.401 213.275 811.286 209.08 841.314 199.132C871.453 189.147 900.075 173.582 915.248 150.428L921.626 152.932Z" fill="#F7ECCC" stroke="#927417" stroke-width="7"/>
<path d="M734.466 272.825L754.51 294.925L755.857 296.411L755.256 298.325L752.591 306.806V416.715C753.071 419.385 754.509 423.396 757.263 426.731C760.022 430.074 764.052 432.71 769.956 432.796L776.795 432.896L772.714 438.384C770.12 441.872 765.664 447.127 760.622 451.678C758.099 453.955 755.364 456.117 752.586 457.794C750.014 459.347 747.216 460.601 744.39 461.028L743.823 461.103C740.383 461.485 737.164 460.189 734.45 458.396C731.713 456.589 729.154 454.06 726.885 451.367C722.342 445.977 718.532 439.415 716.39 434.996L715.86 433.904L716.12 432.719L720.665 412.017V319.295C719.607 315.299 715.252 305.28 705.66 296.816L702.528 294.054L705.796 291.454L729.694 272.438L732.262 270.396L734.466 272.825Z" fill="#F7ECCC" stroke="#927417" stroke-width="7"/>
<path d="M807.781 294.077C809.105 301.315 812.245 312.3 817.284 321.608C822.435 331.123 828.938 337.761 836.543 338.505L839.802 338.823L841.877 337.342L868.859 318.069L870.979 316.554L873.039 318.152C878.203 322.16 882.122 329.556 884.669 338.174C887.255 346.923 888.586 357.464 888.171 368.364C887.346 390.055 879.541 414.007 859.798 427.854L854.562 431.526L856.095 431.45L846.762 438.341L819.266 458.642L815.763 461.228L814.016 457.307C810.421 453.991 807.28 449.058 804.405 443.837C801.368 438.321 798.289 431.824 795.283 426.003C792.198 420.029 789.099 414.572 785.771 410.463C782.407 406.31 779.202 404.024 776.035 403.52L767.835 402.213L774.496 397.256L796.596 380.81L797.451 380.173L798.516 380.122C808.512 379.638 814.858 386.177 820.37 394.958C823.154 399.393 825.917 404.71 828.925 410.52C831.921 416.307 835.198 422.663 839.102 429.435C839.452 429.846 840.156 430.519 841.106 431.084C842.16 431.71 843.322 432.089 844.508 432.029L852.877 431.61L854.357 424.295C859.533 398.722 859.022 380.963 855.912 368.336C852.823 355.79 847.12 348.107 841.491 342.718L840.96 342.209L838.661 344.479C835.345 347.753 829.965 352.944 824.595 357.475C821.914 359.737 819.178 361.883 816.665 363.555C814.423 365.046 811.988 366.418 809.767 366.929L809.325 367.019C807.043 367.428 804.849 366.79 802.987 365.814C801.111 364.832 799.3 363.369 797.608 361.673C794.221 358.276 790.909 353.532 788.122 348.375C785.326 343.201 782.968 337.447 781.573 331.948C780.2 326.537 779.656 320.972 780.921 316.389L781.043 315.946L781.274 315.551C783.108 312.42 786.318 307.54 790.068 302.94C793.727 298.453 798.267 293.768 802.808 291.56L806.952 289.543L807.781 294.077ZM841.366 260.369C844.429 262.239 850.003 265.009 856.505 267.052C863.039 269.105 870.197 270.322 876.559 269.4L884.706 268.22L879.903 274.906C877.519 278.226 873.058 283.171 867.227 287.574C861.586 291.834 854.437 295.756 846.447 297.031L845.672 297.146C840.848 297.807 837.358 297.88 834.605 297.363C831.669 296.812 829.782 295.631 828.158 294.288C826.468 292.89 825.723 291.997 823.896 290.756C822.259 289.643 819.891 288.408 815.962 287.277L809.936 285.542L814.575 281.324L837.188 260.767L839.129 259.003L841.366 260.369Z" fill="#F7ECCC" stroke="#927417" stroke-width="7"/>
<path d="M921.571 287.332C921.158 288.983 921.015 291.012 920.964 293.393C920.916 295.613 920.952 298.342 920.802 300.71C920.65 303.103 920.29 305.745 919.198 308.019C918.017 310.476 915.994 312.454 912.883 313.257L911.931 313.502L910.989 313.216C907.497 312.153 906.335 308.878 906.048 306.408C905.747 303.819 906.178 300.83 906.961 298.024C907.756 295.175 908.991 292.244 910.527 289.715C912.025 287.249 914.004 284.847 916.43 283.45L923.569 279.339L921.571 287.332ZM1004.42 365.508C1006.33 368.972 1009.57 374.136 1013.47 379.121C1017.73 384.559 1022.51 389.422 1026.99 391.845L1030.86 393.932L1027.96 397.232L1005.86 422.415L1003.84 424.72L1001.29 423.019C995.618 419.237 982.538 408.371 974.979 394.548L974.549 393.763V316.996L939.025 334.219L935.648 393.318L958.65 411.721L961.704 414.163L934.526 441.341L931.035 444.831L928.897 440.382C927.496 437.464 924.416 432.768 919.889 428.615C915.516 424.604 909.983 421.268 903.486 420.325L902.854 420.241L896.376 419.464L900.607 414.497C901.531 413.413 902.869 411.712 903.877 410.162C904.374 409.398 904.717 408.78 904.903 408.351C904.896 408.302 904.891 408.267 904.889 408.25C904.858 408.024 904.834 407.779 904.816 407.543C904.78 407.065 904.751 406.451 904.726 405.742C904.675 404.314 904.639 402.356 904.614 400.011C904.565 395.314 904.561 388.972 904.583 382.007C904.628 368.072 904.783 351.589 904.911 340.662L904.965 336.053L909.391 337.344C909.716 337.439 910.84 337.484 913.03 337.017C915.047 336.586 917.472 335.837 920.055 334.901C925.209 333.034 930.658 330.549 934.084 328.836L934.104 328.827L934.122 328.817L974.549 309.216V295.267C971.05 292.284 965.355 288.092 958.504 284.288C950.82 280.021 941.909 276.367 933.174 275.311L926.132 274.46L931.092 269.389L953.962 246.005L955.771 244.155L958.069 245.342L959.344 245.995C965.926 249.347 975.537 253.918 984.456 257.485C989.221 259.391 993.704 260.977 997.382 261.945C999.223 262.43 1000.79 262.739 1002.03 262.87C1003.35 263.008 1004.02 262.913 1004.24 262.844L1013.7 259.869L1008.2 268.124C1007.37 269.364 1006.15 271.516 1005.27 273.777C1004.33 276.211 1004.08 278.022 1004.31 278.953L1004.42 279.371V365.508Z" fill="#F7ECCC" stroke="#927417" stroke-width="7"/>
<path d="M1046.4 221.568C1048.27 221.568 1049.98 222.24 1051.42 223.095C1052.88 223.956 1054.27 225.121 1055.57 226.402C1058.17 228.957 1060.78 232.339 1063.24 235.735C1064.48 237.449 1065.71 239.208 1066.9 240.906C1068.09 242.614 1069.24 244.257 1070.34 245.782C1072.61 248.916 1074.48 251.24 1075.92 252.476L1079.43 255.482L1075.58 258.046C1074.73 258.615 1073.94 259.622 1073.29 260.892C1072.74 261.978 1072.41 263.041 1072.26 263.709V357.651C1072.99 362.427 1075.78 366.822 1079.29 370.496C1082.84 374.209 1086.87 376.9 1089.38 378.193L1093.45 380.294L1090.35 383.672L1067.23 408.854L1064.7 411.606L1062.12 408.905C1058.41 405.028 1052.9 399.1 1048.4 393.916C1046.16 391.334 1044.12 388.88 1042.67 386.935C1041.96 385.976 1041.32 385.043 1040.88 384.229C1040.66 383.835 1040.41 383.333 1040.25 382.788C1040.15 382.453 1039.75 381.131 1040.44 379.739L1040.46 379.705C1040.48 379.649 1040.51 379.545 1040.56 379.378C1040.66 379.082 1040.76 378.692 1040.88 378.211C1041.12 377.251 1041.38 376.045 1041.64 374.738C1042.14 372.236 1042.61 369.481 1042.91 367.624C1043.42 343.945 1044.12 294.002 1042.92 280.105C1042.4 274.194 1038.79 268.584 1034.09 263.885C1029.42 259.219 1024.09 255.87 1021.04 254.455L1016.7 252.45L1019.92 248.921L1043.82 222.71L1044.86 221.568H1046.4ZM1112.96 201.268C1114.62 201.268 1116.19 201.977 1117.37 202.64C1118.65 203.356 1120 204.321 1121.33 205.371C1123.98 207.465 1127 210.229 1129.85 212.799C1132.78 215.436 1135.55 217.882 1137.94 219.593C1139.14 220.449 1140.11 221.028 1140.86 221.355C1141.33 221.557 1141.57 221.606 1141.65 221.618L1145.75 220.764V327.288C1147.09 334.861 1150.68 340.289 1154.6 343.734C1158.71 347.344 1162.83 348.514 1164.99 348.274L1174.32 347.238L1167.95 354.129L1139.68 384.708L1136.8 387.822L1134.29 384.406L1115.02 358.195L1111.84 353.87L1116.6 352.811C1116.68 352.63 1116.76 352.397 1116.82 352.138C1116.87 351.914 1116.9 351.717 1116.91 351.583V260.141C1110.8 244.194 1095.21 238.565 1088.17 237.799L1081.71 237.097L1085.85 232.09L1110.26 202.538L1111.31 201.268H1112.96Z" fill="#F7ECCC" stroke="#927417" stroke-width="7"/>
<path d="M1199.19 283.474C1204.52 283.161 1208.53 286.925 1211.43 290.78C1214.53 294.905 1217.32 300.438 1219.92 305.509C1222.61 310.766 1225.11 315.544 1227.76 318.851C1230.47 322.244 1232.42 322.971 1234.04 322.632L1244.14 320.506L1237.42 328.336L1212.49 357.374L1210.18 360.062L1207.52 357.722C1203.87 354.506 1201.24 350.536 1199.02 346.477C1197.91 344.444 1196.87 342.339 1195.85 340.267C1194.83 338.173 1193.83 336.116 1192.76 334.075C1188.52 325.995 1183.36 318.681 1173.03 314.384L1169.69 312.996L1171.19 309.704C1173.01 305.687 1176.47 299.656 1181.03 294.413C1185.5 289.278 1191.56 284.279 1198.67 283.518L1199.19 283.474ZM1202.48 195.903C1203.86 203.278 1206.89 213.755 1211.41 221.39C1213.68 225.221 1216.14 228.011 1218.64 229.48C1220.95 230.835 1223.42 231.156 1226.4 229.834L1233.47 226.703L1257.37 200.85L1258.78 199.327L1260.79 199.83C1263.82 200.587 1266.16 202.918 1267.91 205.532C1269.72 208.223 1271.24 211.707 1272.47 215.652C1274.94 223.562 1276.42 233.878 1276.42 244.842C1276.42 266.568 1270.58 292.163 1253.47 306.63L1246.38 312.619L1247.74 303.442L1247.88 302.475C1249.31 292.312 1250.19 277.08 1248.38 263.286C1247.44 256.166 1245.81 249.606 1243.28 244.369C1240.76 239.139 1237.48 235.485 1233.35 233.668L1231.87 233.016L1230.86 234.779C1228.03 239.696 1222.98 247.827 1217.46 254.774C1214.7 258.24 1211.73 261.524 1208.79 263.973C1205.98 266.308 1202.58 268.398 1199.04 268.398C1197.03 268.398 1194.92 267.702 1192.96 266.696C1190.96 265.665 1188.88 264.187 1186.91 262.337C1182.96 258.636 1179.23 253.283 1177.21 246.573C1173.07 232.891 1176.25 214.522 1196.56 194.078L1201.26 189.346L1202.48 195.903ZM1268.74 155.612C1260.06 168.249 1253.1 177.338 1244.26 182.481C1235.19 187.755 1224.68 188.619 1209.58 186.388L1203.65 185.512L1207.33 180.78L1228.65 153.284L1229.8 151.811L1231.66 151.938C1236.16 152.244 1242.65 152.621 1248.98 152.515C1255.47 152.405 1261.2 151.787 1264.5 150.403L1275.48 145.799L1268.74 155.612Z" fill="#F7ECCC" stroke="#927417" stroke-width="7"/>
<path d="M751.917 230.207C739.377 224.451 734.942 211.739 734 206C734 216.484 722.5 226.5 715.428 230.207C728.379 235.347 732.816 247.767 733.416 253.335C734.238 243.056 746.093 233.634 751.917 230.207Z" fill="#927417" stroke="#927417"/>
<defs>
<filter id="filter0_d_258_61" x="6.45264" y="303.187" width="1355.25" height="233.473" filterUnits="userSpaceOnUse" color-interpolation-filters="sRGB">
<feFlood flood-opacity="0" result="BackgroundImageFix"/>
<feColorMatrix in="SourceAlpha" type="matrix" values="0 0 0 0 0 0 0 0 0 0 0 0 0 0 0 0 0 0 127 0" result="hardAlpha"/>
<feOffset dy="6"/>
<feComposite in2="hardAlpha" operator="out"/>
<feColorMatrix type="matrix" values="0 0 0 0 1 0 0 0 0 1 0 0 0 0 1 0 0 0 1 0"/>
<feBlend mode="normal" in2="BackgroundImageFix" result="effect1_dropShadow_258_61"/>
<feBlend mode="normal" in="SourceGraphic" in2="effect1_dropShadow_258_61" result="shape"/>
</filter>
<filter id="filter1_d_258_61" x="84.5713" y="0" width="1195.67" height="176.501" filterUnits="userSpaceOnUse" color-interpolation-filters="sRGB">
<feFlood flood-opacity="0" result="BackgroundImageFix"/>
<feColorMatrix in="SourceAlpha" type="matrix" values="0 0 0 0 0 0 0 0 0 0 0 0 0 0 0 0 0 0 127 0" result="hardAlpha"/>
<feOffset dy="-6"/>
<feComposite in2="hardAlpha" operator="out"/>
<feColorMatrix type="matrix" values="0 0 0 0 1 0 0 0 0 1 0 0 0 0 1 0 0 0 1 0"/>
<feBlend mode="normal" in2="BackgroundImageFix" result="effect1_dropShadow_258_61"/>
<feBlend mode="normal" in="SourceGraphic" in2="effect1_dropShadow_258_61" result="shape"/>
</filter>
</defs>
</svg>
