<svg width="1369" height="537" viewBox="0 0 1369 537" fill="none" xmlns="http://www.w3.org/2000/svg">
<path d="M85 37.5C-6.50005 121.5 -6.50375 260.021 8.99999 311.5L86.1128 357.663L154.98 424.989L203.547 485.377L227.959 458.138L283.207 441.178L356.7 469.445L609.557 502.079L640.907 523.408L735.985 508.761L975.479 473.042L1179.51 405.716L1360 309C1393.92 174.76 1317.96 66.0313 1276.5 28L1173.86 81.6797L953.637 162.882L957.235 141.553L937.191 101.98L894.021 105.578L853.42 152.346L703.093 170.077L698.982 117.398L664.034 95.556L609.557 131.275L598.764 156.2L566.9 150.804L436.36 140.782L378.799 156.2L339.997 145.408L326.892 117.398L296.57 61.3792L250.829 25.6607L162.946 9.47168L85 37.5Z" fill="#042833" stroke="#927417"/>
<g filter="url(#filter0_d_258_61)">
<path d="M94.0789 354.066L6.45276 303.187L10.0503 317.577L85.342 364.345C94.0789 388.5 178.364 451.971 185.046 464.562C190.391 474.636 193.611 485.377 194.553 489.488H206.117C224.619 478.439 230.615 468.331 234.126 460.708C257.973 459.68 275.755 450.344 281.666 445.804C390.826 490.619 552.767 507.819 620.093 510.817C655.657 546.381 695.898 526.149 711.573 511.588C989.304 513.438 1259.69 384.388 1360.16 319.632L1361.7 303.187C1095.48 470.524 812.904 504.307 704.892 500.281C670.972 532.762 640.136 512.701 628.315 498.482C491.814 498.071 340.34 454.626 281.666 432.955C280.021 434.806 244.919 450.686 221.278 450.686C219.839 458.909 210.999 471.329 206.117 475.355C189.414 436.296 157.036 420.878 145.216 411.37C135.759 403.764 107.184 369.998 94.0789 354.066Z" fill="#927417"/>
</g>
<g filter="url(#filter1_d_258_61)">
<path d="M92.5371 41.0789L84.5711 37.2244C104.101 24.8898 160.891 -10.5716 237.981 15.1252C305.751 37.7153 334.173 111.231 340.254 138.984L382.654 151.318C394.577 141.656 433.534 136.671 451.521 135.386C497.365 136.825 567.414 145.237 596.708 149.263L601.591 129.99C612.127 121.767 647.112 90.3892 669.687 91.7017C691.787 92.9865 703.95 110.375 707.205 117.398L710.545 163.396L792.261 161.597C823.097 157.897 856.503 139.155 869.352 130.247C873.206 114.058 885.541 89.6459 925.885 96.3271C959.258 101.854 963.316 138.127 961.86 155.173C1080.68 128.448 1218.23 55.0409 1270.99 22.3203L1280.24 30.8002C1132.64 122.486 994.495 162.197 944.386 170.077C953.894 144.38 951.838 115.086 922.03 106.863C891.668 98.487 882.2 123.823 880.401 138.213C859.844 158.77 802.968 172.304 777.1 176.501L696.412 174.188V129.99C694.973 108.199 675.593 104.229 666 105C659.5 105 628.719 121.779 614.5 133C610 136 607.073 153.46 606.473 163.396C566.386 156.817 488.92 149.898 455 147.5C439.5 146 402.783 151.661 382.654 163.396L330.233 147.978C310.086 42.9292 224.704 17.8662 184.532 18.4658C150.869 14.8682 111.467 31.571 92.5371 41.0789Z" fill="#927417"/>
</g>
<path d="M206.888 118.074V427.206" stroke="#0B6E73" stroke-width="7"/>
<path d="M98.6747 73.9722L97.3499 74.5092L96.7799 75.8202C73.4258 129.534 38.3708 279.885 169.985 387.262L169.991 387.267L169.997 387.272C176.477 392.509 186.606 399.077 197.866 404.444C209.081 409.79 221.747 414.105 233.231 414.515L233.396 414.521L233.561 414.511C240.118 414.126 246.399 413.716 253.511 410.22C260.553 406.759 268.116 400.435 277.913 388.867L285.912 379.421L274.151 383.28C254.653 389.676 200.025 385.104 146.908 313.887C159.417 307.417 166.929 300.57 171.777 293.948C176.138 287.991 178.258 282.274 179.89 277.875C180.225 276.971 180.54 276.122 180.849 275.338C181.779 272.984 182.525 269.334 183.153 265.269C183.795 261.11 184.356 256.204 184.836 251.154C185.796 241.051 186.442 230.222 186.744 223.327L186.747 223.25V223.174V77.2158V70.8518L181.373 74.26C177.795 76.5289 173.235 77.676 168.79 78.1139C164.367 78.5496 160.362 78.254 158.135 77.8765L154.05 77.1841V81.3272V171.878H140.076H138.539L137.499 173.01L125.935 185.602L122.098 189.78L127.553 191.335C135.976 193.736 142.217 201.029 146.457 211.829C150.683 222.592 152.665 236.253 152.897 250.149C153.127 264.017 151.61 277.875 149.005 288.925C147.702 294.454 146.146 299.19 144.451 302.838C143.628 304.61 142.814 306.032 142.04 307.138C110.614 261.78 102.852 210.552 106.593 165.905C110.439 120.011 126.394 81.5628 140.731 64.0119L136.706 58.5541L98.6747 73.9722ZM236.71 121.591L237.13 121.755L237.579 121.807C246.192 122.805 265.641 121.954 279.08 107.619L287.136 99.0261L275.695 101.826C272.955 102.496 265.878 101.93 255.111 95.7123C244.501 89.5855 230.709 78.1826 214.77 58.0813L212.774 55.5636L210.095 57.3379L190.308 70.4432L187.642 72.209L189.161 75.0232C192.52 81.249 198.99 90.7231 207.237 99.6756C215.45 108.591 225.71 117.302 236.71 121.591Z" fill="#0B6E73" stroke="#0B6E73" stroke-width="7"/>
<path d="M321.481 198.497L323.408 200.351C328.978 205.708 337.618 213.645 345.422 220.043C349.335 223.251 352.959 226.005 355.842 227.852C357.294 228.781 358.45 229.41 359.296 229.76C359.581 229.878 359.788 229.947 359.927 229.985L364.055 228.729V233.452V353.713V355.476L362.638 356.526L341.824 371.944L336.24 376.08V369.131V251.001L303.034 222.722C302.097 241.265 301.088 266.472 300.737 289.166C300.539 302.036 300.552 314.057 300.907 323.579C301.085 328.343 301.346 332.436 301.702 335.677C302.069 339.023 302.506 341.133 302.907 342.144C305.026 347.488 309.863 353.909 315.353 359.94C320.775 365.895 326.538 371.153 330.151 374.144L334.45 377.702L329.376 380.023L305.221 391.073L303.46 391.878L301.843 390.815C299.19 389.072 295.77 385.723 292.319 381.93C288.794 378.057 285.004 373.456 281.582 368.975C278.168 364.504 275.065 360.08 272.943 356.561C271.894 354.821 271.01 353.182 270.462 351.812C270.195 351.143 269.936 350.363 269.833 349.573C269.753 348.964 269.622 347.33 270.841 345.976M321.481 198.497L270.841 345.976M321.481 198.497L319.186 199.869L300.269 211.173M321.481 198.497L300.269 211.173M270.841 345.976C271.246 345.526 271.728 344.578 272.134 343.23C272.493 342.036 272.694 340.86 272.772 340.15L274.311 223.641L274.343 221.243L276.59 220.407L296.54 212.984L296.8 208.219L300.269 211.173M270.841 345.976L300.269 211.173M360.119 230.026C360.119 230.027 360.112 230.026 360.099 230.024C360.112 230.025 360.119 230.026 360.119 230.026Z" fill="#0B6E73" stroke="#0B6E73" stroke-width="7"/>
<path d="M401.567 224.894L399.769 223.686L397.885 224.756L375.272 237.604L370.262 240.45L375.097 243.584C385.292 250.192 386.766 257.869 386.616 259.921L386.606 260.057L386.606 260.192C386.692 279.377 386.795 308.256 386.825 332.543C386.84 344.688 386.837 355.679 386.804 363.734C386.788 367.763 386.764 371.048 386.732 373.373C386.716 374.537 386.698 375.445 386.678 376.079C386.669 376.347 386.661 376.55 386.654 376.696C386.564 376.954 386.42 377.227 386.238 377.49C386.024 377.799 385.839 377.978 385.813 378.003C385.81 378.006 385.809 378.007 385.81 378.006L383.77 379.706L384.858 382.128C386.166 385.043 388.552 388.548 391.371 392.175C394.23 395.855 397.689 399.855 401.299 403.796C408.516 411.675 416.459 419.451 421.685 424.154L423.645 425.918L425.881 424.521L452.606 407.818L462.238 401.798L450.888 401.353C449.35 401.292 446.921 400.286 443.688 397.949C440.58 395.702 437.187 392.566 433.808 389.016C427.407 382.292 421.346 374.392 417.752 369.083C417.583 348.916 417.383 318.995 417.324 293.427C417.295 280.418 417.301 268.545 417.366 259.659C417.399 255.214 417.446 251.53 417.51 248.831C417.542 247.48 417.578 246.394 417.618 245.591C417.656 244.815 417.691 244.472 417.698 244.4C417.699 244.388 417.7 244.384 417.7 244.386C418.173 241.901 417.015 239.581 415.987 238.003C414.855 236.267 413.279 234.531 411.637 232.945C408.333 229.755 404.29 226.725 401.567 224.894ZM386.639 376.915C386.638 376.914 386.64 376.901 386.642 376.878C386.64 376.905 386.639 376.916 386.639 376.915ZM482.884 238.6L480.92 235.876L478.117 237.726L452.42 254.686L447.706 257.798L452.591 260.634C457.631 263.56 460.647 269.071 461.641 271.803V364.249V364.355L461.647 364.462C462.361 376.189 462.202 383.581 461.749 388.016C461.537 390.092 461.271 391.416 461.045 392.189L454.999 394.348L461.606 398.124L462.264 398.5C466.865 411.436 474.116 421.103 481.399 427.492C485.154 430.787 488.96 433.246 492.468 434.826C495.894 436.369 499.36 437.216 502.322 436.846C506.772 436.29 511.111 433.123 514.393 430.124C517.82 426.99 520.768 423.404 522.47 421.012L524.509 418.146L521.633 416.121C502.463 402.624 496.037 386.447 495.109 380.441V269.81L498.792 264.827L500.31 262.772L498.816 260.7L482.884 238.6Z" fill="#0B6E73" stroke="#0B6E73" stroke-width="7"/>
<path d="M550.421 440.339L551.629 441.682L553.423 441.476C559.231 440.81 572.712 436.819 581.689 425.822L584.207 422.737L580.824 420.636C578.167 418.985 574.072 416.026 570.56 412.613C568.807 410.909 567.267 409.157 566.128 407.461C564.97 405.737 564.359 404.266 564.201 403.097C563.977 401.439 563.758 395.956 563.569 387.801C563.384 379.771 563.231 369.417 563.108 358.243C562.867 336.295 562.738 311.223 562.693 294.476L566.628 287.3L569.289 282.448L563.765 282.123C563.565 282.111 563.004 281.997 562.489 281.673C562.049 281.396 561.714 281.023 561.559 280.4C561.02 278.245 559.115 271.349 556.379 264.362C555.012 260.871 553.404 257.266 551.611 254.191C549.881 251.224 547.728 248.296 545.105 246.668L543.323 245.562L541.508 246.611L513.498 262.8L508.992 265.405L513.104 268.596C518.38 272.691 529.715 285.266 531.821 301.736C532.916 310.295 533.16 327.775 532.994 346.404C532.831 364.847 532.271 384.13 531.802 396.32C531.479 398.494 529.768 403.8 525.59 407.31L522.818 409.638L525.238 412.33L550.421 440.339ZM608.676 255.767L608.149 249.623L603.144 253.225L575.648 273.011L573.035 274.892L574.692 277.653C575.665 279.275 579.552 284.405 584.808 289.328C589.981 294.174 597.172 299.487 604.771 300.399C611.011 301.148 616.139 298.987 619.9 296.124C623.602 293.305 626.12 289.713 627.359 287.132L629.402 282.876L624.736 282.158C619.704 281.384 615.883 277.464 613.108 271.885C610.363 266.365 609.033 259.942 608.676 255.767Z" fill="#0B6E73" stroke="#0B6E73" stroke-width="7"/>
<path d="M636.383 147.45L634.268 189.758C539.487 173.466 480.862 169.061 444.907 171.016C426.694 172.006 414.059 174.638 405.422 178.34C396.719 182.071 391.833 187.005 389.667 192.62L396.031 195.508C396.222 195.145 396.758 194.518 398.152 193.817C399.526 193.124 401.472 192.493 404.046 191.975C409.192 190.941 416.273 190.473 424.959 190.525C442.292 190.627 465.355 192.786 490.652 196.104C540.025 202.579 597.465 213.408 636.379 221.64V415.643C636.379 424.871 633.383 440.477 631.841 447.243L631.461 448.912L632.545 450.237L634.705 452.877C637.98 458.229 643.244 466.125 648.591 472.706C651.29 476.029 654.097 479.124 656.746 481.395C658.069 482.529 659.442 483.535 660.819 484.256C662.157 484.956 663.787 485.54 665.531 485.434C668.046 485.282 670.768 484.096 673.235 482.72C675.804 481.286 678.535 479.39 681.171 477.369C686.447 473.322 691.612 468.563 694.775 465.4L698.119 462.056L693.945 459.835C672.999 448.69 667.107 427.962 666.764 419.193L668.78 226.148L702.597 228.464L707.605 228.807L706.195 223.989L703.506 214.801L710.055 202.172L712.417 197.615L707.313 197.08L668.819 193.04V131.179V124.749L663.419 128.24L637.979 144.686L636.473 145.659L636.383 147.45ZM921.626 137.932L915.248 135.428C900.075 158.582 871.453 174.148 841.314 184.133C811.285 194.081 780.401 198.275 761.525 199.12L755.914 199.371L758.612 204.297L763.832 213.829L761.657 221.441L760.205 226.524L765.451 225.877C821.703 218.936 859.603 203.189 884.021 186.089C908.341 169.056 919.49 150.512 921.626 137.932Z" fill="#0B6E73" stroke="#0B6E73" stroke-width="7"/>
<path d="M734.466 257.825L732.262 255.395L729.694 257.438L705.796 276.454L702.529 279.054L705.66 281.817C715.249 290.278 719.605 300.294 720.665 304.292V397.018L716.121 417.719L715.86 418.904L716.39 419.996C718.532 424.415 722.342 430.977 726.885 436.368C729.154 439.06 731.713 441.589 734.45 443.397C737.164 445.189 740.383 446.485 743.824 446.103C746.842 445.767 749.842 444.45 752.586 442.794C755.364 441.116 758.099 438.956 760.622 436.678C765.664 432.127 770.12 426.872 772.714 423.384L776.795 417.895L769.956 417.796C764.052 417.711 760.022 415.074 757.263 411.731C754.513 408.4 753.072 404.396 752.59 401.726V291.807L755.256 283.325L755.858 281.411L754.51 279.925L734.466 257.825Z" fill="#0B6E73" stroke="#0B6E73" stroke-width="7"/>
<path d="M798.516 365.122L797.451 365.173L796.596 365.81L774.496 382.256L767.835 387.213L776.035 388.52C779.202 389.025 782.407 391.31 785.771 395.463C789.099 399.573 792.198 405.029 795.283 411.002C796.399 413.164 797.525 415.418 798.655 417.68C800.569 421.512 802.496 425.368 804.405 428.837C807.281 434.058 810.42 438.993 814.016 442.308L815.762 446.228L819.266 443.641L846.761 423.341L856.094 416.45L854.562 416.527L859.798 412.855C879.541 399.007 887.345 375.056 888.171 353.365C888.585 342.464 887.255 331.924 884.669 323.174C882.122 314.557 878.203 307.16 873.039 303.152L870.98 301.554L868.859 303.069L841.877 322.342L839.802 323.824L836.543 323.505C828.938 322.761 822.434 316.123 817.284 306.609C812.245 297.3 809.105 286.315 807.781 279.077L806.952 274.543L802.807 276.559C798.267 278.768 793.727 283.453 790.069 287.941C786.318 292.54 783.108 297.42 781.275 300.551L781.043 300.947L780.921 301.389C779.657 305.972 780.2 311.537 781.573 316.948C782.968 322.447 785.326 328.201 788.122 333.375C790.909 338.532 794.22 343.276 797.608 346.673C799.3 348.369 801.112 349.832 802.988 350.814C804.85 351.79 807.043 352.429 809.325 352.019C811.663 351.599 814.273 350.146 816.665 348.555C819.177 346.884 821.913 344.737 824.594 342.475C829.964 337.944 835.345 332.753 838.661 329.48L840.961 327.21L841.491 327.718C847.12 333.107 852.823 340.79 855.912 353.336C859.021 365.963 859.533 383.722 854.357 409.295L852.877 416.611L844.508 417.029C843.322 417.089 842.16 416.71 841.106 416.084C840.154 415.518 839.45 414.843 839.1 414.432C835.314 407.865 832.117 401.688 829.195 396.042L828.924 395.52C825.917 389.71 823.153 384.393 820.37 379.958C814.858 371.177 808.512 364.638 798.516 365.122ZM841.367 245.369L839.129 244.003L837.189 245.767L814.576 266.324L809.935 270.542L815.962 272.277C819.891 273.408 822.259 274.643 823.896 275.756C825.073 276.555 825.8 277.21 826.62 277.948C827.074 278.356 827.556 278.79 828.158 279.288C829.782 280.631 831.668 281.813 834.606 282.364C837.359 282.88 840.848 282.807 845.671 282.146C853.975 281.009 861.404 276.971 867.227 272.574C873.059 268.171 877.519 263.226 879.903 259.906L884.706 253.22L876.558 254.4C870.197 255.322 863.039 254.105 856.505 252.052C850.003 250.009 844.429 247.239 841.367 245.369Z" fill="#0B6E73" stroke="#0B6E73" stroke-width="7"/>
<path d="M934.123 313.817L934.103 313.827L934.084 313.836C930.658 315.55 925.209 318.034 920.054 319.901C917.472 320.837 915.047 321.586 913.03 322.017C910.839 322.484 909.717 322.439 909.391 322.344L904.965 321.053L904.911 325.663C904.783 336.589 904.628 353.072 904.583 367.006C904.561 373.972 904.565 380.314 904.615 385.011C904.639 387.356 904.675 389.314 904.725 390.742C904.75 391.452 904.78 392.065 904.817 392.543C904.835 392.779 904.857 393.024 904.889 393.25L904.891 393.265C904.893 393.285 904.897 393.316 904.903 393.355C904.716 393.784 904.372 394.4 903.877 395.162C902.869 396.712 901.531 398.412 900.607 399.497L896.376 404.464L902.854 405.241C909.624 406.054 915.375 409.475 919.889 413.616C924.416 417.768 927.495 422.464 928.897 425.381L931.036 429.832L934.527 426.34L958.939 401.928L961.704 399.163L958.65 396.72L935.649 378.32L939.026 319.219L974.549 301.996V377.868V378.763L974.978 379.548C982.538 393.371 995.618 404.237 1001.29 408.019L1003.84 409.719L1005.86 407.415L1027.96 382.233L1030.86 378.931L1026.99 376.844C1022.51 374.421 1017.73 369.559 1013.47 364.121C1009.57 359.137 1006.34 353.974 1004.42 350.509V264.802V264.371L1004.31 263.953C1004.08 263.022 1004.33 261.211 1005.27 258.777C1006.15 256.516 1007.37 254.364 1008.2 253.124L1013.7 244.869L1004.24 247.844C1004.02 247.913 1003.35 248.009 1002.03 247.87C1000.78 247.739 999.223 247.43 997.382 246.945C993.704 245.977 989.221 244.391 984.456 242.486C974.943 238.68 964.641 233.734 958.069 230.342L955.77 229.156L953.962 231.005L931.091 254.389L926.132 259.46L933.174 260.311C941.909 261.367 950.819 265.021 958.504 269.288C965.354 273.093 971.05 277.283 974.549 280.265V294.217L934.123 313.817ZM921.571 272.332L923.569 264.339L916.429 268.45C914.003 269.847 912.026 272.249 910.528 274.715C908.991 277.244 907.756 280.175 906.961 283.025C906.177 285.831 905.747 288.819 906.048 291.408C906.335 293.877 907.497 297.153 910.989 298.216L911.93 298.502L912.883 298.256C915.994 297.454 918.017 295.476 919.198 293.019C920.291 290.745 920.65 288.103 920.801 285.71C920.904 284.094 920.92 282.311 920.935 280.635C920.942 279.855 920.949 279.098 920.964 278.393C921.016 276.012 921.158 273.984 921.571 272.332Z" fill="#0B6E73" stroke="#0B6E73" stroke-width="7"/>
<path d="M1019.92 233.921L1016.7 237.45L1021.04 239.455C1024.09 240.87 1029.42 244.22 1034.09 248.885C1038.79 253.585 1042.4 259.194 1042.92 265.105C1044.12 279.002 1043.42 328.948 1042.91 352.626C1042.61 354.483 1042.14 357.237 1041.64 359.738C1041.38 361.045 1041.12 362.251 1040.88 363.211C1040.76 363.691 1040.66 364.082 1040.57 364.378C1040.48 364.649 1040.44 364.755 1040.44 364.755C1040.44 364.756 1040.44 364.754 1040.44 364.75C1039.75 366.138 1040.14 367.454 1040.25 367.788C1040.41 368.333 1040.66 368.835 1040.88 369.23C1041.32 370.043 1041.96 370.976 1042.67 371.934C1044.12 373.879 1046.16 376.334 1048.4 378.916C1052.9 384.1 1058.41 390.028 1062.12 393.906L1064.7 396.607L1067.23 393.855L1090.35 368.672L1093.45 365.294L1089.38 363.193C1086.87 361.899 1082.84 359.209 1079.29 355.496C1075.78 351.825 1073 347.435 1072.26 342.664V248.709C1072.41 248.041 1072.74 246.978 1073.29 245.891C1073.94 244.622 1074.73 243.614 1075.58 243.045L1079.43 240.483L1075.92 237.476C1074.48 236.24 1072.61 233.917 1070.34 230.782C1069.26 229.289 1068.14 227.683 1066.97 226.014L1066.9 225.906C1065.71 224.208 1064.48 222.45 1063.24 220.736C1060.78 217.339 1058.17 213.957 1055.57 211.403C1054.27 210.122 1052.88 208.956 1051.42 208.095C1049.98 207.241 1048.27 206.568 1046.4 206.568H1044.86L1043.82 207.71L1019.92 233.921ZM1167.95 339.129L1174.32 332.238L1164.99 333.275C1162.83 333.515 1158.71 332.344 1154.6 328.734C1150.68 325.29 1147.09 319.866 1145.75 312.298V210.068V205.764L1141.65 206.618C1141.58 206.607 1141.34 206.562 1140.86 206.356C1140.11 206.029 1139.14 205.448 1137.94 204.592C1135.55 202.882 1132.78 200.436 1129.85 197.799C1129.49 197.476 1129.13 197.151 1128.77 196.824C1126.25 194.546 1123.65 192.203 1121.33 190.372C1119.99 189.321 1118.65 188.356 1117.37 187.64C1116.19 186.977 1114.62 186.268 1112.96 186.268H1111.31L1110.26 187.538L1085.85 217.09L1081.71 222.097L1088.17 222.798C1095.21 223.564 1110.8 229.192 1116.91 245.134V336.611C1116.9 336.744 1116.87 336.929 1116.82 337.138C1116.76 337.398 1116.68 337.631 1116.6 337.811L1111.84 338.87L1115.02 343.195L1134.29 369.406L1136.8 372.822L1139.68 369.708L1167.95 339.129Z" fill="#0B6E73" stroke="#0B6E73" stroke-width="7"/>
<path d="M1230.86 219.779L1231.87 218.016L1233.35 218.668C1237.48 220.485 1240.76 224.139 1243.28 229.369C1245.81 234.606 1247.44 241.165 1248.38 248.286C1250.25 262.525 1249.25 278.296 1247.74 288.442L1246.38 297.619L1253.47 291.63C1270.58 277.164 1276.42 251.568 1276.42 229.842C1276.42 218.878 1274.94 208.562 1272.47 200.652C1271.24 196.707 1269.72 193.223 1267.91 190.533C1266.16 187.919 1263.82 185.588 1260.79 184.83L1258.78 184.327L1257.37 185.85L1233.47 211.703L1226.4 214.834C1223.42 216.156 1220.95 215.836 1218.64 214.481C1216.14 213.012 1213.68 210.222 1211.41 206.39C1206.89 198.755 1203.86 188.278 1202.48 180.903L1201.26 174.346L1196.56 179.078C1176.25 199.521 1173.07 217.891 1177.21 231.573C1179.23 238.283 1182.96 243.636 1186.91 247.337C1188.88 249.187 1190.96 250.665 1192.96 251.697C1194.92 252.702 1197.03 253.398 1199.04 253.398C1202.58 253.398 1205.98 251.308 1208.79 248.972C1211.73 246.523 1214.7 243.24 1217.46 239.775C1222.98 232.827 1228.03 224.696 1230.86 219.779ZM1207.52 342.721L1210.18 345.062L1212.49 342.374L1237.42 313.336L1244.14 305.505L1234.04 307.632C1232.43 307.971 1230.47 307.244 1227.76 303.851C1225.11 300.544 1222.61 295.767 1219.92 290.509C1219.81 290.294 1219.7 290.079 1219.59 289.863C1217.08 284.973 1214.4 279.731 1211.43 275.781C1208.44 271.801 1204.26 267.918 1198.67 268.517C1191.56 269.278 1185.5 274.278 1181.03 279.413C1176.47 284.656 1173.01 290.687 1171.19 294.704L1169.69 297.996L1173.03 299.384C1183.36 303.681 1188.52 310.995 1192.76 319.075C1193.72 320.906 1194.62 322.748 1195.54 324.619C1195.64 324.834 1195.75 325.05 1195.85 325.266C1196.87 327.339 1197.91 329.444 1199.02 331.477C1201.24 335.536 1203.87 339.506 1207.52 342.721ZM1268.74 140.612L1275.48 130.799L1264.5 135.403C1261.2 136.786 1255.47 137.405 1248.98 137.515C1242.65 137.621 1236.16 137.245 1231.66 136.938L1229.8 136.811L1228.65 138.284L1207.33 165.78L1203.66 170.512L1209.58 171.388C1224.68 173.619 1235.19 172.755 1244.26 167.482C1253.1 162.338 1260.06 153.249 1268.74 140.612Z" fill="#0B6E73" stroke="#0B6E73" stroke-width="7"/>
<path d="M206.888 133.074V442.206" stroke="#927417" stroke-width="7"/>
<path d="M98.6744 88.9722L97.3496 89.5092L96.7797 90.8202C73.4255 144.534 38.3706 294.885 169.985 402.262L169.991 402.267L169.997 402.272C176.477 407.509 186.606 414.077 197.865 419.444C209.081 424.79 221.747 429.105 233.231 429.515L233.396 429.521L233.561 429.511C240.118 429.126 246.399 428.716 253.51 425.22C260.552 421.759 268.116 415.435 277.912 403.867L285.912 394.421L274.15 398.28C254.652 404.676 200.024 400.104 146.908 328.887C159.417 322.417 166.929 315.57 171.777 308.948C176.138 302.991 178.258 297.274 179.889 292.875C180.225 291.971 180.54 291.122 180.849 290.338C181.779 287.984 182.525 284.334 183.152 280.269C183.795 276.11 184.356 271.204 184.836 266.154C185.796 256.051 186.442 245.222 186.743 238.327L186.747 238.25V238.174V92.2158V85.8518L181.372 89.26C177.794 91.5289 173.235 92.676 168.79 93.1139C164.367 93.5496 160.362 93.254 158.135 92.8765L154.05 92.1841V96.3272V186.878H140.076H138.538L137.498 188.01L125.935 200.602L122.098 204.78L127.553 206.335C135.975 208.736 142.217 216.029 146.457 226.829C150.683 237.592 152.665 251.253 152.896 265.149C153.127 279.017 151.61 292.875 149.005 303.925C147.701 309.454 146.146 314.19 144.451 317.838C143.627 319.61 142.813 321.032 142.039 322.138C110.614 276.78 102.852 225.552 106.593 180.905C110.439 135.011 126.394 96.5628 140.731 79.0119L136.706 73.5541L98.6744 88.9722ZM236.709 136.591L237.13 136.755L237.578 136.807C246.192 137.805 265.641 136.954 279.08 122.619L287.135 114.026L275.694 116.826C272.954 117.496 265.878 116.93 255.111 110.712C244.501 104.585 230.709 93.1826 214.77 73.0813L212.773 70.5636L210.095 72.3379L190.308 85.4432L187.642 87.209L189.16 90.0232C192.52 96.249 198.989 105.723 207.237 114.676C215.45 123.591 225.71 132.302 236.709 136.591Z" fill="#F7ECCC" stroke="#927417" stroke-width="7"/>
<path d="M321.481 213.497L323.408 215.351C328.978 220.708 337.618 228.645 345.422 235.043C349.335 238.251 352.959 241.005 355.842 242.852C357.294 243.781 358.45 244.41 359.296 244.76C359.581 244.878 359.788 244.947 359.927 244.985L364.055 243.729V248.452V368.713V370.476L362.638 371.526L341.824 386.944L336.24 391.08V384.131V266.001L303.034 237.722C302.097 256.265 301.088 281.472 300.737 304.166C300.539 317.036 300.552 329.057 300.907 338.579C301.085 343.343 301.346 347.436 301.702 350.677C302.069 354.023 302.506 356.133 302.907 357.144C305.026 362.488 309.863 368.909 315.353 374.94C320.775 380.895 326.538 386.153 330.151 389.144L334.45 392.702L329.376 395.023L305.221 406.073L303.46 406.878L301.843 405.815C299.19 404.072 295.77 400.723 292.319 396.93C288.794 393.057 285.004 388.456 281.582 383.975C278.168 379.504 275.065 375.08 272.943 371.561C271.894 369.821 271.01 368.182 270.463 366.812C270.195 366.143 269.936 365.363 269.833 364.573C269.753 363.964 269.622 362.33 270.841 360.976M321.481 213.497L270.841 360.976M321.481 213.497L319.186 214.869L300.269 226.173M321.481 213.497L300.269 226.173M270.841 360.976C271.246 360.526 271.728 359.578 272.134 358.23C272.493 357.036 272.694 355.86 272.772 355.15L274.311 238.641L274.343 236.243L276.59 235.407L296.54 227.984L296.8 223.219L300.269 226.173M270.841 360.976L300.269 226.173M360.119 245.026C360.119 245.027 360.113 245.026 360.099 245.024C360.112 245.025 360.119 245.026 360.119 245.026Z" fill="#F7ECCC" stroke="#927417" stroke-width="7"/>
<path d="M401.566 239.894L399.768 238.686L397.885 239.756L375.272 252.604L370.262 255.45L375.097 258.584C385.292 265.192 386.766 272.869 386.615 274.921L386.606 275.057L386.606 275.192C386.692 294.377 386.795 323.256 386.825 347.543C386.84 359.688 386.836 370.679 386.804 378.734C386.787 382.763 386.764 386.048 386.732 388.373C386.715 389.537 386.697 390.445 386.677 391.079C386.669 391.347 386.661 391.55 386.653 391.696C386.563 391.954 386.42 392.227 386.238 392.49C386.024 392.799 385.839 392.978 385.813 393.003C385.81 393.006 385.809 393.007 385.81 393.006L383.77 394.706L384.857 397.128C386.166 400.043 388.552 403.548 391.37 407.175C394.229 410.855 397.689 414.855 401.299 418.796C408.515 426.675 416.458 434.451 421.685 439.154L423.645 440.918L425.881 439.521L452.606 422.818L462.238 416.798L450.888 416.353C449.349 416.292 446.92 415.286 443.688 412.949C440.58 410.702 437.187 407.566 433.807 404.016C427.406 397.292 421.346 389.392 417.752 384.083C417.583 363.916 417.383 333.995 417.324 308.427C417.294 295.418 417.301 283.545 417.366 274.659C417.399 270.214 417.446 266.53 417.51 263.831C417.542 262.48 417.578 261.394 417.618 260.591C417.656 259.815 417.691 259.472 417.698 259.4C417.699 259.388 417.7 259.384 417.699 259.386C418.173 256.901 417.015 254.581 415.986 253.003C414.855 251.267 413.279 249.531 411.636 247.945C408.333 244.755 404.29 241.725 401.566 239.894ZM386.638 391.915C386.638 391.914 386.639 391.901 386.642 391.878C386.64 391.905 386.638 391.916 386.638 391.915ZM482.884 253.6L480.92 250.876L478.117 252.726L452.42 269.686L447.706 272.798L452.591 275.634C457.63 278.56 460.647 284.071 461.641 286.803V379.249V379.355L461.647 379.462C462.361 391.189 462.201 398.581 461.749 403.016C461.537 405.092 461.271 406.416 461.045 407.189L454.998 409.348L461.606 413.124L462.263 413.5C466.864 426.436 474.115 436.103 481.399 442.492C485.154 445.787 488.96 448.246 492.468 449.826C495.894 451.369 499.36 452.216 502.321 451.846C506.772 451.29 511.111 448.123 514.392 445.124C517.82 441.99 520.768 438.404 522.47 436.012L524.509 433.146L521.633 431.121C502.462 417.624 496.037 401.447 495.108 395.441V284.81L498.792 279.827L500.31 277.772L498.816 275.7L482.884 253.6Z" fill="#F7ECCC" stroke="#927417" stroke-width="7"/>
<path d="M550.421 455.339L551.629 456.682L553.423 456.476C559.231 455.809 572.712 451.819 581.689 440.822L584.207 437.737L580.824 435.635C578.167 433.985 574.072 431.025 570.56 427.612C568.807 425.908 567.267 424.157 566.128 422.461C564.97 420.737 564.359 419.265 564.201 418.096C563.977 416.439 563.758 410.956 563.569 402.8C563.384 394.77 563.231 384.416 563.108 373.242C562.867 351.294 562.738 326.222 562.693 309.475L566.628 302.3L569.289 297.448L563.765 297.123C563.565 297.111 563.004 296.997 562.489 296.672C562.049 296.395 561.714 296.022 561.559 295.399C561.02 293.245 559.115 286.349 556.379 279.361C555.012 275.87 553.404 272.266 551.611 269.19C549.881 266.223 547.728 263.295 545.105 261.667L543.323 260.562L541.508 261.611L513.498 277.8L508.992 280.404L513.104 283.595C518.38 287.69 529.715 300.265 531.821 316.736C532.916 325.294 533.16 342.775 532.994 361.403C532.831 379.847 532.271 399.13 531.802 411.319C531.479 413.494 529.768 418.8 525.59 422.309L522.818 424.637L525.238 427.329L550.421 455.339ZM608.676 270.766L608.149 264.623L603.144 268.224L575.648 288.011L573.035 289.892L574.692 292.653C575.665 294.275 579.552 299.404 584.808 304.327C589.981 309.173 597.172 314.486 604.771 315.398C611.011 316.147 616.139 313.986 619.9 311.123C623.602 308.304 626.12 304.712 627.359 302.131L629.402 297.875L624.736 297.157C619.704 296.383 615.883 292.464 613.108 286.884C610.363 281.364 609.033 274.942 608.676 270.766Z" fill="#F7ECCC" stroke="#927417" stroke-width="7"/>
<path d="M636.383 162.45L634.268 204.758C539.488 188.466 480.862 184.06 444.907 186.015C426.694 187.005 414.059 189.637 405.422 193.34C396.719 197.07 391.833 202.005 389.667 207.619L396.031 210.508C396.222 210.144 396.759 209.518 398.152 208.816C399.526 208.124 401.472 207.492 404.047 206.975C409.192 205.94 416.273 205.473 424.959 205.524C442.292 205.627 465.355 207.785 490.652 211.103C540.025 217.578 597.465 228.408 636.379 236.64V430.642C636.379 439.87 633.383 455.476 631.841 462.243L631.461 463.912L632.545 465.237L634.705 467.877C637.98 473.229 643.244 481.124 648.591 487.706C651.291 491.028 654.097 494.124 656.746 496.394C658.07 497.529 659.442 498.534 660.819 499.255C662.157 499.956 663.787 500.539 665.531 500.434C668.046 500.281 670.768 499.096 673.235 497.719C675.804 496.285 678.535 494.389 681.171 492.368C686.447 488.322 691.612 483.563 694.775 480.399L698.119 477.056L693.945 474.835C672.999 463.689 667.107 442.961 666.764 434.193L668.78 241.148L702.597 243.464L707.605 243.807L706.195 238.989L703.506 229.801L710.055 217.171L712.417 212.615L707.313 212.079L668.819 208.04V146.179V139.748L663.419 143.239L637.979 159.685L636.473 160.659L636.383 162.45ZM921.626 152.932L915.248 150.428C900.075 173.582 871.453 189.148 841.314 199.132C811.285 209.081 780.401 213.275 761.526 214.119L755.914 214.37L758.612 219.297L763.832 228.829L761.657 236.441L760.205 241.523L765.451 240.876C821.703 233.935 859.603 218.189 884.021 201.088C908.341 184.056 919.49 165.511 921.626 152.932Z" fill="#F7ECCC" stroke="#927417" stroke-width="7"/>
<path d="M734.466 272.825L732.262 270.395L729.694 272.438L705.796 291.454L702.529 294.054L705.66 296.817C715.249 305.278 719.605 315.294 720.665 319.292V412.018L716.121 432.719L715.86 433.904L716.39 434.996C718.532 439.415 722.342 445.977 726.885 451.368C729.154 454.06 731.713 456.589 734.45 458.397C737.164 460.189 740.383 461.485 743.824 461.103C746.842 460.767 749.842 459.45 752.586 457.794C755.364 456.116 758.099 453.956 760.622 451.678C765.664 447.127 770.12 441.872 772.714 438.384L776.795 432.895L769.956 432.796C764.052 432.711 760.022 430.074 757.263 426.731C754.513 423.4 753.072 419.396 752.59 416.726V306.807L755.256 298.325L755.858 296.411L754.51 294.925L734.466 272.825Z" fill="#F7ECCC" stroke="#927417" stroke-width="7"/>
<path d="M751.917 230.207C739.377 224.451 734.942 211.739 734 206C734 216.484 722.5 226.5 715.428 230.207C728.379 235.347 732.816 247.767 733.416 253.335C734.238 243.056 746.093 233.634 751.917 230.207Z" fill="#927417" stroke="#927417"/>
<path d="M798.516 380.122L797.451 380.173L796.596 380.81L774.497 397.256L767.836 402.213L776.035 403.52C779.202 404.025 782.407 406.31 785.771 410.463C789.099 414.573 792.198 420.029 795.283 426.002C796.399 428.164 797.525 430.418 798.655 432.68C800.57 436.512 802.496 440.368 804.406 443.837C807.281 449.058 810.421 453.993 814.016 457.308L815.763 461.228L819.266 458.641L846.761 438.341L856.094 431.45L854.563 431.527L859.798 427.855C879.541 414.007 887.345 390.056 888.171 368.365C888.586 357.464 887.255 346.924 884.669 338.174C882.122 329.557 878.203 322.16 873.039 318.152L870.98 316.554L868.859 318.069L841.877 337.342L839.802 338.824L836.543 338.505C828.938 337.761 822.435 331.123 817.284 321.609C812.245 312.3 809.105 301.315 807.782 294.077L806.952 289.543L802.807 291.559C798.267 293.768 793.727 298.453 790.069 302.941C786.318 307.54 783.109 312.42 781.275 315.551L781.043 315.947L780.921 316.389C779.657 320.972 780.2 326.537 781.573 331.948C782.968 337.447 785.326 343.201 788.122 348.375C790.909 353.532 794.221 358.276 797.608 361.673C799.3 363.369 801.112 364.832 802.988 365.814C804.85 366.79 807.043 367.429 809.325 367.019C811.663 366.599 814.273 365.146 816.665 363.555C819.177 361.884 821.913 359.737 824.594 357.475C829.965 352.944 835.345 347.753 838.661 344.48L840.961 342.21L841.491 342.718C847.12 348.107 852.823 355.79 855.912 368.336C859.021 380.963 859.533 398.722 854.358 424.295L852.877 431.611L844.508 432.029C843.322 432.089 842.16 431.71 841.106 431.084C840.154 430.518 839.45 429.843 839.1 429.432C835.314 422.865 832.117 416.688 829.195 411.042L828.925 410.52C825.917 404.71 823.154 399.393 820.37 394.958C814.858 386.177 808.512 379.638 798.516 380.122ZM841.367 260.369L839.129 259.003L837.189 260.767L814.576 281.324L809.936 285.542L815.962 287.277C819.891 288.408 822.259 289.643 823.897 290.756C825.073 291.555 825.8 292.21 826.62 292.948C827.074 293.356 827.556 293.79 828.158 294.288C829.782 295.631 831.669 296.813 834.606 297.364C837.359 297.88 840.848 297.807 845.672 297.146C853.975 296.009 861.404 291.971 867.227 287.574C873.059 283.171 877.519 278.226 879.903 274.906L884.706 268.22L876.559 269.4C870.197 270.322 863.039 269.105 856.505 267.052C850.003 265.009 844.43 262.239 841.367 260.369Z" fill="#F7ECCC" stroke="#927417" stroke-width="7"/>
<path d="M934.122 328.817L934.103 328.827L934.084 328.836C930.658 330.55 925.209 333.034 920.054 334.901C917.472 335.837 915.047 336.586 913.03 337.017C910.839 337.484 909.717 337.439 909.391 337.344L904.965 336.053L904.911 340.663C904.782 351.589 904.628 368.072 904.583 382.006C904.561 388.972 904.565 395.314 904.615 400.011C904.639 402.356 904.675 404.314 904.725 405.742C904.75 406.452 904.78 407.065 904.816 407.543C904.835 407.779 904.857 408.024 904.889 408.25L904.891 408.265C904.893 408.285 904.897 408.316 904.903 408.355C904.716 408.784 904.372 409.4 903.877 410.162C902.869 411.712 901.531 413.412 900.607 414.497L896.376 419.464L902.854 420.241C909.624 421.054 915.375 424.475 919.889 428.616C924.416 432.768 927.495 437.464 928.897 440.381L931.035 444.832L934.527 441.34L958.939 416.928L961.704 414.163L958.65 411.72L935.649 393.32L939.026 334.219L974.549 316.996V392.868V393.763L974.978 394.548C982.538 408.371 995.617 419.237 1001.29 423.019L1003.84 424.719L1005.86 422.415L1027.96 397.233L1030.86 393.931L1026.99 391.844C1022.51 389.421 1017.73 384.559 1013.47 379.121C1009.57 374.137 1006.34 368.974 1004.42 365.509V279.802V279.371L1004.31 278.953C1004.08 278.022 1004.33 276.211 1005.27 273.777C1006.15 271.516 1007.37 269.364 1008.2 268.124L1013.7 259.869L1004.24 262.844C1004.02 262.913 1003.35 263.009 1002.03 262.87C1000.78 262.739 999.223 262.43 997.382 261.945C993.704 260.977 989.221 259.391 984.456 257.486C974.943 253.68 964.641 248.734 958.069 245.342L955.77 244.156L953.962 246.005L931.091 269.389L926.132 274.46L933.174 275.311C941.909 276.367 950.819 280.021 958.503 284.288C965.354 288.093 971.05 292.283 974.549 295.265V309.217L934.122 328.817ZM921.571 287.332L923.569 279.339L916.429 283.45C914.003 284.847 912.026 287.249 910.528 289.715C908.991 292.244 907.756 295.175 906.96 298.025C906.177 300.831 905.747 303.819 906.048 306.408C906.335 308.877 907.497 312.153 910.989 313.216L911.93 313.502L912.883 313.256C915.994 312.454 918.017 310.476 919.198 308.019C920.29 305.745 920.65 303.103 920.801 300.71C920.904 299.094 920.92 297.311 920.935 295.635C920.942 294.855 920.949 294.098 920.964 293.393C921.015 291.012 921.158 288.984 921.571 287.332Z" fill="#F7ECCC" stroke="#927417" stroke-width="7"/>
<path d="M1019.92 248.921L1016.7 252.45L1021.04 254.455C1024.09 255.87 1029.42 259.22 1034.09 263.885C1038.79 268.585 1042.4 274.194 1042.92 280.105C1044.12 294.002 1043.42 343.948 1042.91 367.626C1042.61 369.483 1042.14 372.237 1041.64 374.738C1041.38 376.045 1041.12 377.251 1040.88 378.211C1040.76 378.691 1040.66 379.082 1040.57 379.378C1040.48 379.649 1040.44 379.755 1040.44 379.755C1040.44 379.756 1040.44 379.753 1040.44 379.749C1039.75 381.138 1040.15 382.454 1040.25 382.788C1040.41 383.333 1040.66 383.835 1040.88 384.23C1041.32 385.043 1041.96 385.976 1042.67 386.934C1044.12 388.879 1046.16 391.334 1048.4 393.916C1052.9 399.1 1058.41 405.028 1062.12 408.906L1064.7 411.607L1067.23 408.855L1090.35 383.672L1093.45 380.294L1089.38 378.193C1086.87 376.899 1082.84 374.209 1079.29 370.496C1075.78 366.825 1073 362.435 1072.26 357.664V263.709C1072.41 263.041 1072.74 261.978 1073.29 260.891C1073.94 259.622 1074.73 258.614 1075.58 258.046L1079.43 255.483L1075.92 252.476C1074.48 251.24 1072.61 248.917 1070.34 245.782C1069.26 244.289 1068.14 242.683 1066.97 241.013L1066.9 240.906C1065.71 239.208 1064.48 237.45 1063.24 235.736C1060.78 232.339 1058.17 228.957 1055.57 226.403C1054.27 225.122 1052.88 223.956 1051.42 223.095C1049.98 222.241 1048.27 221.568 1046.4 221.568H1044.86L1043.82 222.71L1019.92 248.921ZM1167.95 354.129L1174.32 347.238L1164.99 348.275C1162.83 348.515 1158.71 347.344 1154.6 343.734C1150.68 340.29 1147.09 334.866 1145.75 327.298V225.068V220.764L1141.65 221.618C1141.58 221.607 1141.34 221.562 1140.86 221.356C1140.11 221.029 1139.14 220.448 1137.94 219.592C1135.55 217.882 1132.78 215.436 1129.85 212.799C1129.49 212.477 1129.13 212.151 1128.77 211.825C1126.25 209.546 1123.65 207.203 1121.33 205.372C1120 204.321 1118.65 203.356 1117.37 202.64C1116.19 201.977 1114.62 201.268 1112.96 201.268H1111.31L1110.26 202.538L1085.85 232.09L1081.71 237.097L1088.17 237.798C1095.21 238.564 1110.8 244.192 1116.91 260.134V351.611C1116.9 351.744 1116.87 351.929 1116.82 352.138C1116.76 352.398 1116.68 352.631 1116.6 352.811L1111.84 353.87L1115.02 358.195L1134.29 384.406L1136.8 387.822L1139.68 384.708L1167.95 354.129Z" fill="#F7ECCC" stroke="#927417" stroke-width="7"/>
<path d="M1230.86 234.779L1231.87 233.016L1233.35 233.668C1237.48 235.485 1240.76 239.139 1243.28 244.369C1245.81 249.606 1247.44 256.165 1248.38 263.286C1250.25 277.525 1249.25 293.296 1247.74 303.442L1246.38 312.619L1253.47 306.63C1270.58 292.164 1276.42 266.568 1276.42 244.842C1276.42 233.878 1274.94 223.562 1272.47 215.652C1271.24 211.707 1269.72 208.223 1267.91 205.533C1266.16 202.919 1263.82 200.588 1260.79 199.83L1258.78 199.327L1257.37 200.85L1233.47 226.703L1226.4 229.834C1223.42 231.156 1220.95 230.836 1218.64 229.481C1216.14 228.012 1213.68 225.222 1211.41 221.39C1206.89 213.755 1203.86 203.278 1202.48 195.903L1201.26 189.346L1196.56 194.078C1176.25 214.521 1173.07 232.891 1177.21 246.573C1179.23 253.283 1182.96 258.636 1186.91 262.337C1188.88 264.187 1190.96 265.665 1192.96 266.697C1194.92 267.702 1197.03 268.398 1199.04 268.398C1202.58 268.398 1205.98 266.308 1208.79 263.972C1211.73 261.523 1214.7 258.24 1217.46 254.775C1222.98 247.827 1228.03 239.696 1230.86 234.779ZM1207.52 357.721L1210.18 360.062L1212.49 357.374L1237.42 328.336L1244.14 320.505L1234.04 322.632C1232.43 322.971 1230.47 322.244 1227.76 318.851C1225.11 315.544 1222.61 310.767 1219.92 305.509C1219.81 305.294 1219.7 305.079 1219.59 304.863C1217.08 299.973 1214.4 294.731 1211.43 290.781C1208.44 286.801 1204.26 282.918 1198.67 283.517C1191.56 284.278 1185.5 289.278 1181.03 294.413C1176.47 299.656 1173.01 305.687 1171.19 309.704L1169.69 312.996L1173.03 314.384C1183.36 318.681 1188.52 325.995 1192.76 334.075C1193.72 335.906 1194.62 337.748 1195.54 339.619C1195.64 339.834 1195.75 340.05 1195.85 340.266C1196.87 342.339 1197.91 344.444 1199.02 346.477C1201.24 350.536 1203.87 354.506 1207.52 357.721ZM1268.74 155.612L1275.48 145.799L1264.5 150.403C1261.2 151.786 1255.47 152.405 1248.98 152.515C1242.66 152.621 1236.16 152.245 1231.66 151.938L1229.8 151.811L1228.65 153.284L1207.33 180.78L1203.66 185.512L1209.58 186.388C1224.68 188.619 1235.19 187.755 1244.26 182.482C1253.1 177.338 1260.06 168.249 1268.74 155.612Z" fill="#F7ECCC" stroke="#927417" stroke-width="7"/>
<defs>
<filter id="filter0_d_258_61" x="6.45276" y="303.187" width="1355.25" height="233.473" filterUnits="userSpaceOnUse" color-interpolation-filters="sRGB">
<feFlood flood-opacity="0" result="BackgroundImageFix"/>
<feColorMatrix in="SourceAlpha" type="matrix" values="0 0 0 0 0 0 0 0 0 0 0 0 0 0 0 0 0 0 127 0" result="hardAlpha"/>
<feOffset dy="6"/>
<feComposite in2="hardAlpha" operator="out"/>
<feColorMatrix type="matrix" values="0 0 0 0 1 0 0 0 0 1 0 0 0 0 1 0 0 0 1 0"/>
<feBlend mode="normal" in2="BackgroundImageFix" result="effect1_dropShadow_258_61"/>
<feBlend mode="normal" in="SourceGraphic" in2="effect1_dropShadow_258_61" result="shape"/>
</filter>
<filter id="filter1_d_258_61" x="84.5711" y="0" width="1195.67" height="176.501" filterUnits="userSpaceOnUse" color-interpolation-filters="sRGB">
<feFlood flood-opacity="0" result="BackgroundImageFix"/>
<feColorMatrix in="SourceAlpha" type="matrix" values="0 0 0 0 0 0 0 0 0 0 0 0 0 0 0 0 0 0 127 0" result="hardAlpha"/>
<feOffset dy="-6"/>
<feComposite in2="hardAlpha" operator="out"/>
<feColorMatrix type="matrix" values="0 0 0 0 1 0 0 0 0 1 0 0 0 0 1 0 0 0 1 0"/>
<feBlend mode="normal" in2="BackgroundImageFix" result="effect1_dropShadow_258_61"/>
<feBlend mode="normal" in="SourceGraphic" in2="effect1_dropShadow_258_61" result="shape"/>
</filter>
</defs>
</svg>
