<svg width="67" height="67" viewBox="0 0 67 67" fill="none" xmlns="http://www.w3.org/2000/svg">
<path d="M20.9375 36.2917C18.4529 36.2917 16.024 35.5549 13.9581 34.1745C11.8923 32.7941 10.2821 30.8321 9.33126 28.5366C8.38044 26.2411 8.13166 23.7152 8.61639 21.2784C9.10111 18.8415 10.2976 16.603 12.0545 14.8461C13.8114 13.0892 16.0498 11.8928 18.4867 11.4081C20.9236 10.9233 23.4495 11.1721 25.745 12.1229C28.0405 13.0738 30.0025 14.6839 31.3828 16.7498C32.7632 18.8157 33.5 21.2445 33.5 23.7292C33.4963 27.0598 32.1716 30.253 29.8165 32.6081C27.4613 34.9632 24.2681 36.288 20.9375 36.2917ZM39.0833 67H2.79167C2.05127 67 1.3412 66.7059 0.81766 66.1824C0.294121 65.6588 0 64.9487 0 64.2083V62.8125C0 57.2595 2.20591 51.934 6.13245 48.0075C10.059 44.0809 15.3845 41.875 20.9375 41.875C26.4905 41.875 31.816 44.0809 35.7425 48.0075C39.6691 51.934 41.875 57.2595 41.875 62.8125V64.2083C41.875 64.9487 41.5809 65.6588 41.0573 66.1824C40.5338 66.7059 39.8237 67 39.0833 67ZM48.8542 25.125C46.3695 25.125 43.9407 24.3882 41.8748 23.0078C39.8089 21.6275 38.1988 19.6655 37.2479 17.37C36.2971 15.0745 36.0483 12.5486 36.5331 10.1117C37.0178 7.6748 38.2142 5.43637 39.9711 3.67948C41.728 1.92258 43.9665 0.726117 46.4033 0.241391C48.8402 -0.243336 51.3661 0.00544316 53.6616 0.956269C55.9571 1.9071 57.9191 3.51726 59.2995 5.58315C60.6799 7.64905 61.4167 10.0779 61.4167 12.5625C61.413 15.8932 60.0882 19.0863 57.7331 21.4415C55.378 23.7966 52.1848 25.1213 48.8542 25.125ZM44.8872 30.767C42.2871 31.1158 39.7871 31.9978 37.5437 33.3578C35.3004 34.7177 33.362 36.5263 31.8501 38.6702C38.106 41.5111 43.0213 46.6605 45.5684 53.0417H64.2083C64.9487 53.0417 65.6588 52.7476 66.1823 52.224C66.7059 51.7005 67 50.9904 67 50.25V50.1439C66.9971 47.3612 66.4006 44.6111 65.2504 42.0773C64.1001 39.5434 62.4225 37.2841 60.3296 35.4501C58.2368 33.6162 55.7767 32.2498 53.1138 31.4422C50.4508 30.6346 47.6462 30.4044 44.8872 30.767Z" fill="#FFBD03"/>
</svg>
